<?xml version="1.0" encoding="UTF-8" standalone="no"?><!DOCTYPE svg PUBLIC "-//W3C//DTD SVG 1.1//EN" "http://www.w3.org/Graphics/SVG/1.1/DTD/svg11.dtd"><svg width="100%" height="100%" viewBox="0 0 550 550" version="1.1" xmlns="http://www.w3.org/2000/svg" xmlns:xlink="http://www.w3.org/1999/xlink" xml:space="preserve" xmlns:serif="http://www.serif.com/" style="fill-rule:evenodd;clip-rule:evenodd;stroke-linejoin:round;stroke-miterlimit:2;"><path d="M260.741,545.417c-1.019,-0.51 -3.056,-0.51 -4.074,-0.51c-5.093,0 -21.389,-2.037 -32.084,-4.074c-9.676,-2.037 -8.657,-1.527 -16.805,-3.564c-3.565,-1.019 -7.13,-2.038 -7.13,-1.528l-0.509,-0l-0,-1.019l-0.509,0c-1.528,0 -15.278,-4.583 -21.899,-7.129c-3.055,-1.528 -6.111,-2.547 -7.129,-2.547c-0.509,0 -1.019,-0.509 -1.019,-0.509c0,0 -2.546,-1.528 -5.602,-2.546c-3.055,-1.528 -7.129,-3.565 -9.675,-5.093l-4.584,-2.037l0,0.509l-1.018,-0.509c-0.51,-0.509 -3.565,-2.546 -6.621,-4.583c-6.62,-3.565 -17.824,-10.695 -20.879,-12.732l-1.528,-1.018l-0,0.509l-0.509,0l-0,-0.509c-0,-0 -1.528,-1.528 -3.565,-3.056c-7.13,-5.092 -21.898,-17.315 -25.463,-20.879l-1.019,-1.528l-0.509,0.509l-0.509,0l-0,-0.509l0.509,-0l-9.676,-9.676l-0.509,0.509l0.509,-0.509l-2.546,-3.056c-5.602,-5.602 -14.769,-16.805 -19.861,-23.935c-1.528,-2.037 -3.056,-3.565 -3.056,-3.565l-0.509,0l-0,-0.509c-0,0 -1.528,-3.055 -4.074,-6.62c-2.546,-4.074 -6.62,-10.185 -9.167,-14.769c-2.037,-4.583 -4.583,-8.148 -4.583,-8.148l-0.509,-0.509l0.509,-0l-2.037,-4.074c-2.037,-4.074 -2.037,-4.074 -13.75,-4.074c-9.167,-0 -12.222,-0.51 -12.732,-1.019c-1.018,-1.018 -2.037,-109.491 -1.018,-156.342c-0,-24.445 -0,-24.954 1.018,-25.973c0.51,0 2.547,-0.509 3.565,-0.509l2.546,0l1.019,-3.056c0,-1.527 0.509,-3.564 0.509,-4.074l0.51,-1.018l0.509,-0l-0,-0.509c-0,-1.528 4.583,-15.278 7.129,-21.899c1.528,-3.564 2.547,-6.62 2.547,-7.129l-0,-1.019l1.018,0l1.528,-4.074c1.019,-2.037 3.056,-6.62 4.583,-9.676l3.056,-6.111l-0.509,0l0.509,-0.509c-0,-0 2.546,-3.565 4.583,-8.148c2.547,-4.584 6.621,-10.695 9.167,-14.259c2.546,-4.075 4.074,-7.13 4.074,-7.13l-0,-0.509l0.509,-0c0,-0 1.528,-1.528 3.056,-3.565c5.092,-7.13 17.315,-21.898 20.879,-25.463l1.528,-1.019l-0.509,-0.509l-0,-0.509l0.509,0.509l4.584,-4.583l5.092,-4.584l-0.509,-0.509l-0,-0.509l0.509,-0l0.509,0.509l1.019,-1.528c3.565,-3.564 18.333,-15.787 25.463,-20.879c2.037,-1.528 3.565,-3.056 3.565,-3.056l-0,-0.509l0.509,-0c-0,-0 3.055,-1.528 7.13,-4.074c3.564,-2.546 9.675,-6.62 14.259,-9.167c4.583,-2.037 8.148,-4.583 8.148,-4.583l0.509,-0.509l0,0.509l4.584,-2.546c2.546,-1.019 5.092,-2.547 5.092,-2.547c0,0 0.509,-0.509 1.019,-0.509c0.509,0 3.055,-1.018 5.092,-2.037c9.167,-4.074 31.574,-12.222 34.121,-12.222l0.509,-0l-0,-1.019l0.509,0c0,0.51 2.037,0 4.074,-0.509c1.528,-0.509 4.074,-1.019 4.584,-1.528c0.509,0 3.564,-0.509 6.62,-1.018c37.685,-8.658 80.463,-8.658 118.148,-0c3.056,0.509 6.111,1.018 6.62,1.018c0.51,0.509 3.056,1.019 4.584,1.528c2.037,0.509 4.074,1.019 4.074,0.509l0.509,0l0,1.019l0.509,-0c1.528,-0 15.278,4.583 21.899,7.129c3.055,1.528 6.111,2.547 7.129,2.547c0.509,-0 1.019,0.509 1.019,0.509c0.509,0.509 8.148,4.074 9.166,4.074c0.51,0 1.019,0.509 1.019,0.509c-0,0 2.546,1.528 5.092,2.547l4.584,2.546l-0,-0.509l1.018,0.509c0.51,0.509 3.565,2.546 7.13,4.583c6.111,3.565 17.315,10.695 20.37,12.732l1.528,1.018l0,-0.509l0.509,-0l0,0.509c0,0 1.528,1.528 3.565,3.056c7.13,5.092 18.333,14.259 23.935,19.861l3.056,2.546l-0,-0.509l0.509,-0l0,0.509l-0.509,0.509l5.092,4.584l4.584,4.583l0.509,-0.509l-0.509,0.509l2.546,3.056c5.602,5.602 14.769,16.805 19.861,23.935c1.528,2.037 3.056,3.565 3.056,3.565l0.509,-0l0,0.509l-0.509,-0l1.018,1.528c2.037,3.055 9.167,14.259 12.732,20.879c2.037,3.056 4.074,6.111 4.583,6.621l0.509,1.018l-0.509,0l2.037,4.584c1.528,2.546 3.565,6.62 5.093,9.675c1.018,3.056 2.546,5.602 2.546,5.602c0,0 0.509,0.51 0.509,1.019c0,1.018 1.019,4.074 2.547,7.129c2.546,6.112 7.129,20.371 7.129,21.899l0,0.509l1.019,-0l-0,0.509c-0.51,0 0.509,3.565 1.528,7.13c2.037,8.148 1.527,7.129 3.564,16.805c3.565,18.334 4.584,30.556 4.584,50.417c-0,16.296 -0.51,21.389 -2.547,36.157c-0.509,5.602 -3.055,19.862 -4.074,23.426c-0.509,3.565 -0.509,4.584 1.528,11.713c1.019,4.074 2.037,7.639 2.546,8.658c0,0.509 1.528,6.62 3.565,13.75c3.565,12.222 3.565,13.24 3.565,18.333l-0,5.093l-15.278,-0c-15.787,-0 -15.787,-0 -17.824,3.564c-1.018,2.547 -2.037,4.075 -2.037,4.584c0,-0 -0.509,1.018 -1.018,2.546c-0.51,1.019 -2.547,4.074 -4.074,6.62c-3.056,5.093 -10.186,16.806 -12.223,19.352l-1.018,1.528l0.509,0l0,0.509l-0.509,0c-0,0 -1.528,1.528 -3.056,3.565c-5.092,7.13 -17.315,21.898 -20.879,25.463l-1.528,1.019l0.509,0.509l0,0.509l-0.509,0l-0,-0.509l-9.676,9.676l0.509,0.509l-0.509,-0.509l-3.056,2.546c-5.602,5.602 -16.805,14.769 -23.935,19.861c-2.037,1.528 -3.565,3.056 -3.565,3.056l0,0.509l-0.509,0l0,-0.509l-1.528,1.018c-3.055,2.037 -14.259,9.167 -20.879,13.241c-4.074,2.037 -7.13,4.074 -7.13,4.074l-0.509,1.019l-0,-1.019l-4.584,2.037c-2.546,1.528 -6.62,3.565 -9.675,5.093c-3.056,1.018 -5.602,2.546 -5.602,2.546l-0,0.509l-0.51,0c0,-0.509 -3.055,0.51 -6.62,2.037c-6.111,2.547 -21.389,7.639 -22.917,7.639l-0.509,0l0,1.019l-0.509,-0c-0,-0.51 -3.565,0.509 -7.13,1.528c-8.148,2.037 -7.129,1.527 -16.805,3.564c-10.695,2.037 -23.426,3.565 -33.611,4.074c-6.621,0.51 -29.537,1.019 -31.065,0.51Z" style="fill:#020000;fill-rule:nonzero;"/><path d="M257.685,508.241c-12.222,-1.019 -26.991,-3.056 -28.518,-4.074c-1.019,-1.019 -0,-17.824 2.037,-28.519c2.037,-9.167 6.62,-21.389 11.203,-28.009c2.547,-3.565 7.13,-9.167 9.676,-11.713l2.547,-2.037l1.018,0.509c1.019,0.509 4.074,8.658 8.658,22.917c5.092,14.768 6.62,22.407 6.111,33.611c-0.51,6.62 -1.528,14.259 -2.547,16.805l-0.509,1.019l-2.546,0c-1.019,0 -4.584,-0.509 -7.13,-0.509Zm24.445,-0.51c-0,-0.509 -1.019,-3.564 -1.528,-6.111c-1.019,-7.129 -1.019,-22.407 -0,-28.009c2.546,-10.694 12.222,-38.704 13.75,-39.722l1.018,-0.509l2.547,2.037c2.546,2.546 7.129,8.148 9.676,11.713c4.583,6.62 9.166,18.842 11.203,28.009c2.037,10.185 3.056,28.009 2.037,29.028c-1.527,1.018 -28.518,4.583 -36.666,4.583l-1.528,0l-0.509,-1.019Zm-12.223,0c0,-0.509 0.51,-2.546 0.51,-4.583l1.018,-3.055l0,4.074l0.509,-1.528c0,-1.019 0.51,-7.639 0.51,-14.769l-0,-12.731l-0.51,2.037l-0.509,2.546l0,-4.583c0,-4.583 -1.528,-10.695 -5.602,-22.408c-7.639,-21.388 -7.639,-21.898 -10.185,-21.898c-2.037,0 -3.055,1.019 -7.639,6.111c-8.657,8.658 -14.768,19.862 -15.787,27.5c0,1.528 -1.018,5.602 -2.037,8.658l-1.528,6.111l0,-2.037l-0.509,-2.037l0,10.185l-1.018,-4.074l-0,2.037c-0.51,1.528 -0.51,6.62 -0.51,11.204l0,8.148l-5.092,-0l1.528,-0.509l2.037,-0l-3.565,-0.51c-3.565,0 -3.565,0 -6.111,-3.564c-3.565,-6.621 -9.167,-17.825 -11.204,-23.936c-3.565,-11.203 -3.565,-12.222 -3.565,-32.592c0.509,-9.676 0.509,-18.334 1.019,-19.352l0.509,-2.037l-0,4.583l0.509,-3.055c0.509,-1.528 0.509,-4.584 0.509,-6.621l0,-3.565l-5.092,-0.509c-6.111,0 -11.713,1.019 -18.333,4.584c-3.565,1.527 -5.602,3.055 -9.676,6.62c-6.621,6.62 -9.167,10.694 -11.204,19.352c-1.019,2.546 -1.019,5.092 -1.019,15.787c0,6.62 0,12.731 0.51,14.259l0.509,2.037l-0,-4.583l1.018,3.565c0,1.527 0.51,3.564 0.51,4.074l-0,1.018l-1.019,0c-2.037,0 -19.861,-12.222 -24.444,-16.296l-2.547,-2.037l-0.509,-0l-4.583,-3.565c-5.602,-4.583 -31.574,-30.556 -34.63,-35.139l-2.546,-3.055l0.509,-0l-2.546,-2.547c-2.037,-3.055 -11.204,-15.277 -13.75,-20.37c-1.528,-2.546 -1.528,-2.546 -4.074,-2.546c-1.528,-0 -3.056,-0.51 -3.565,-0.51c-0.509,-0.509 -2.546,-8.148 -7.13,-23.426c-1.018,-3.564 -3.055,-10.694 -5.602,-16.805c-4.074,-13.241 -6.111,-20.37 -6.111,-23.935c0,-1.019 -0.509,-2.547 -0.509,-3.565c-1.528,-2.037 -4.074,-4.583 -5.602,-4.583l-1.528,-0l0,35.138c0,33.102 0,35.139 -1.018,36.158c-1.019,1.018 -1.019,1.018 -14.769,1.528c-15.277,-0 -17.314,-0 -18.333,-1.528c-0.509,-1.019 -0.509,-36.158 -0.509,-158.889l-0,-21.898l0.509,-0l0.509,0.509l0.51,-1.018c1.018,-1.019 1.018,-1.019 22.916,-1.019l22.408,0l-0,-3.056c0.509,-6.62 10.694,-30.046 18.842,-44.814c7.639,-13.241 19.352,-29.537 20.88,-29.537l0.509,-0l0,29.537l1.019,-3.056l-0,1.019c0.509,0.509 0.509,2.546 1.018,4.583c1.019,5.602 3.565,13.75 6.621,19.352c2.546,4.583 3.564,6.111 8.148,10.694c5.092,5.093 8.657,8.148 10.694,9.167c0.509,0.509 2.037,1.018 3.056,1.018c1.018,0.51 4.074,1.019 6.111,1.528l4.074,1.019l-2.037,-0l-2.037,0.509l4.074,0c3.055,0 4.583,0 5.093,-0.509c0.509,-1.019 0.509,-7.13 -0,-11.713l-0.51,-3.056l0,6.111l-1.018,-6.111c-0.51,-4.583 -0.51,-12.222 -0.51,-31.065c0,-25.463 0,-25.463 1.019,-32.592c2.546,-13.241 6.111,-24.445 11.713,-38.704c4.074,-10.185 5.602,-13.75 7.13,-14.768l1.527,-1.019l0.51,0.509c0.509,0.51 0.509,1.528 -0,4.584l-1.019,4.074l0,-5.093l-0.509,1.528c-0,0.509 -0.509,7.639 -0.509,15.278l-0,13.75l1.018,-4.074l0,4.074c0,5.602 1.528,10.694 5.602,19.352c3.056,5.601 3.056,6.111 13.241,15.787c5.602,5.601 10.185,10.185 10.694,10.185c1.528,-0 2.546,-1.528 2.546,-4.074c0,-1.019 0.51,-5.093 1.528,-9.167l1.528,-7.13l0.509,1.528l0.51,2.037l-0,-3.565c-0,-4.583 16.805,-80.463 17.824,-81.99l0.509,-0.51l0.509,0l0.509,0.51l0,12.222c0,6.62 0,13.75 0.51,14.768l0.509,2.547l-0,-4.584l1.018,6.621c2.547,13.24 5.602,22.407 10.186,33.102c5.601,12.731 11.203,20.879 19.351,29.027l6.621,6.621l-0.509,-0l-0.51,0.509l2.547,0c3.055,0 4.583,-1.528 4.583,-4.074c-0,-0.509 1.018,-4.074 2.037,-7.13c9.167,-24.953 13.241,-38.194 14.768,-45.324l1.019,-3.565l0,2.037l0.509,2.037l0,-9.675l0.51,2.037l0.509,2.546l-0,-2.546c0.509,-3.565 0.509,-25.463 -0,-29.028l-0,-2.037l-0.509,2.037l-0.51,2.546l0,-10.185l-0.509,2.037l0,2.037l-1.019,-4.583c-0.509,-2.547 -1.018,-5.093 -1.018,-6.111l-0,-2.037l7.13,-0.51c4.074,0 7.638,0 7.638,0.51c0.51,-0 0,3.055 -1.018,6.62l-1.528,6.62l0,-2.037l-0.509,-2.037l-0,10.185l-0.509,-2.546l-0.51,-2.037l0,15.787c0,8.657 0.51,16.806 0.51,17.824l0.509,1.528l-0,-4.583l1.018,5.601c2.037,7.639 5.093,18.334 11.713,36.158c2.547,8.148 5.602,16.296 5.602,17.824c0.51,3.565 1.528,4.583 4.584,4.074c2.037,0 2.546,-0.509 8.148,-6.111c3.565,-4.074 6.62,-8.148 9.676,-12.222c2.037,-3.565 4.583,-7.13 5.602,-8.658c2.546,-2.546 5.601,-9.166 6.111,-12.222c0.509,-1.018 1.527,-5.093 2.546,-8.148c2.037,-6.111 5.093,-17.824 5.093,-20.37l-0,-1.019l0.509,2.037l0.509,2.546l0,-4.074c0,-2.037 0,-5.602 0.509,-8.148l0.51,-3.565l-0,3.056l0.509,3.565l-0,-23.936l0.509,0c1.019,0 0.509,-2.546 8.148,32.084c4.074,19.352 6.111,28.518 6.111,30.555l0,4.074l0.51,-2.037l0.509,-1.527l2.546,12.731c2.037,8.148 3.056,14.259 3.056,16.296l-0,3.565l0.509,-2.037l0.509,-1.528l0,1.528c0.509,1.019 0.509,2.546 0.509,3.565c0,1.019 0.51,2.037 0.51,2.546c1.528,1.528 3.055,0.51 9.676,-6.62c12.222,-12.222 18.333,-23.426 21.389,-38.704c1.018,-4.583 1.018,-6.62 1.018,-14.259c-0.509,-5.093 -0.509,-10.185 -1.018,-11.713l-0,-3.056l0.509,0c1.018,0 2.546,2.547 6.111,11.204c7.13,17.315 11.204,31.065 13.75,47.361c1.018,5.602 1.018,47.871 -0,58.565l-0.509,7.639l-1.019,-6.111l0,7.129l0.509,7.13l1.528,0c3.056,0 10.695,-2.037 16.296,-4.583c4.584,-2.547 6.112,-3.056 10.695,-8.148c5.093,-5.093 5.602,-5.602 8.657,-11.713c3.565,-7.13 4.584,-11.204 6.111,-18.334l1.019,-4.583l-0,4.583l0.509,-1.527c0,-1.019 0.509,-7.13 0.509,-13.241l0,-11.204l0.51,0c3.055,0 19.352,29.537 25.972,46.852c3.056,8.657 4.074,11.713 4.583,15.278l0,3.055l9.167,0c15.278,0 20.37,1.528 26.991,10.185c8.148,9.167 11.203,23.426 10.694,45.834c-0.509,14.768 -2.037,21.898 -6.62,31.065c-2.037,4.583 -4.584,7.639 -9.167,11.713l-3.565,3.564l2.037,2.547c3.565,3.565 9.676,16.296 9.676,19.861c0,1.018 0.51,2.546 0.51,3.565c0.509,0.509 0.509,1.527 0.509,2.037l-0,1.018l1.018,0l-0.509,1.019l0,0.509l1.019,-0l-0.51,1.018l0,1.019l1.019,0l-0.509,1.019l-0,1.018l1.018,0l-0.509,1.019l-0,0.509l1.018,-0l-0.509,1.018l0,1.019l1.019,-0l-0.51,1.018l0,1.019l1.019,-0l-0.509,1.018l-0,1.019l0.509,-0l0.509,-0.509l-0.509,1.018l-0,1.019l1.018,-0l-0.509,1.018l0,0.509l1.019,0l-0.51,1.019l0,1.019l1.019,-0l-0.509,1.018l-0,1.019l1.018,-0l-0.509,1.018l-0,0.509l1.018,0l-0.509,1.019l0,1.018l1.019,0l-0.51,1.019l0,0.509l1.019,0l-0.509,1.019l-0,1.018l1.018,0l-0.509,1.019l-0,1.018l1.018,0l-0.509,1.019l0,0.509l1.019,0l-0.51,1.019l0,1.018l1.019,0l-0.509,1.019l-0,1.018l0.509,0l0.509,-0.509l0,1.018l-0.509,1.019l1.018,-0l-0.509,1.018l0,1.019l1.019,-0l-0.51,1.018l0,1.019l0.51,-0l0.509,-0.509l0,11.713l-17.824,-0c-12.732,-0 -17.315,-0.51 -17.824,-1.019c-0.509,0 -1.528,-4.074 -3.056,-9.167c-7.639,-26.481 -9.166,-32.083 -10.694,-36.157l-1.019,-4.074l-0.509,0.509l-0.509,0l-0,-2.546l-1.528,4.583c-1.018,2.037 -1.528,5.093 -1.528,6.111c0,1.019 -0.509,3.565 -1.018,5.093l-1.019,3.565l-0.509,-1.528l-0.509,-1.019l-2.037,5.093c-2.037,5.602 -2.037,5.602 -2.547,16.806c0,9.676 0,11.713 -1.018,12.222c-0.509,1.018 -1.528,1.018 -5.602,1.018l-5.093,0l0.51,0.51l0.509,-0l-1.528,2.546c-3.565,6.62 -11.204,17.315 -17.315,25.463c-5.602,6.111 -32.083,32.592 -38.194,38.194c-11.713,9.167 -31.574,21.898 -34.12,21.898l-0.51,0l0,-1.527c0,-0.51 0.51,-3.056 1.019,-5.602l1.018,-4.074l0,4.074l0.51,-2.037c0.509,-1.528 0.509,-7.639 0.509,-14.259c-0,-10.186 -0,-12.732 -1.019,-15.278c-2.037,-8.658 -4.583,-12.732 -11.203,-19.352c-5.602,-5.093 -9.167,-7.13 -16.297,-9.676c-3.565,-1.019 -5.092,-1.019 -10.185,-1.019l-6.111,0l-0.509,5.093l-0,5.093l0.509,-2.547l0.509,-2.037l0,11.204l0.51,-2.546l0.509,-2.037l-0,3.565c0.509,4.583 0.509,33.101 -0,35.138l-0.509,1.528l-0,-3.565l-1.019,3.565c-0.509,2.037 -1.019,5.093 -1.019,6.111c0,4.584 -6.111,18.843 -12.222,28.519c-2.546,4.074 -2.546,4.074 -5.092,4.074l-2.037,-0l-0,-8.658c-0,-5.601 -0.51,-10.185 -1.019,-13.75l-0.509,-5.601l-0.509,2.037l-0,2.037l-1.528,-6.111c-1.019,-3.056 -2.037,-7.13 -2.037,-8.658c-0.509,-5.092 -3.056,-10.185 -8.148,-18.333c-3.056,-4.074 -10.695,-13.241 -12.732,-14.769c-1.528,-0.509 -3.565,-0.509 -4.583,0.51c-1.528,1.527 -10.695,26.99 -13.241,37.176c-1.528,6.62 -1.528,6.62 -1.528,19.351c0,6.621 0.51,13.241 0.51,14.26l0.509,1.527l-0,-4.074l1.018,3.565c0.51,2.037 0.51,4.074 0.51,4.074l-0.51,1.019l-9.166,-0l-0.51,-0.51Zm-137.5,-48.379c0,-0 -1.018,-1.019 -2.037,-2.546l-2.037,-1.528l1.528,2.037c1.528,1.018 2.546,2.037 2.546,2.037Zm-37.685,-37.685c0,-0 -1.018,-1.019 -2.037,-2.547l-2.037,-1.527l1.528,2.037c1.528,1.018 2.546,2.037 2.546,2.037Zm-51.944,-156.852l-0,-15.278l-2.547,0l0,15.278c0,13.75 0,15.278 1.019,15.787l0.509,0.509l0.51,-0.509c0.509,-0.509 0.509,-7.639 0.509,-15.787Zm466.481,8.148c0,-1.019 0.51,-5.093 0.51,-9.167c-0,-6.62 -0,-7.639 -1.019,-9.676c-1.019,-1.527 -2.037,-3.055 -2.546,-3.564l-0.51,-0.51l1.019,1.019c0.509,1.018 1.018,2.037 1.018,12.731l0,11.713l1.019,0l0.509,-2.546Zm-296.389,-222.546l-0.509,-0l-1.018,1.018l0.509,-0.509l1.018,-0l0,-0.509Zm119.676,450.694c0,-0.509 2.037,-5.092 4.584,-10.694c5.092,-10.186 7.639,-16.297 10.185,-25.463c1.018,-5.093 1.018,-5.602 1.018,-20.371c0,-13.75 0,-16.296 -1.018,-22.407c-0.509,-5.093 -1.019,-7.639 -0.509,-7.639c1.018,-1.528 12.731,1.528 18.842,4.074c4.074,2.546 13.75,11.713 15.787,15.787c3.056,6.621 3.565,10.185 3.565,21.898c0,5.602 0,11.713 -0.509,13.75c-1.019,5.602 -2.547,12.223 -3.056,13.241c-2.546,2.546 -31.065,13.75 -43.287,17.315c-2.037,-0 -3.565,0.509 -4.074,1.018l-1.018,0l-0.51,-0.509Zm-122.731,-1.528c-9.167,-2.037 -32.084,-11.203 -41.759,-16.296c-3.565,-2.037 -4.075,-2.546 -5.093,-8.148c-2.546,-10.695 -2.546,-26.482 -0.509,-33.611c2.037,-7.13 3.565,-9.676 9.676,-15.787c6.111,-5.602 9.166,-7.639 15.277,-9.676c4.584,-1.528 11.713,-2.546 12.223,-1.528c0.509,0 -0,2.546 -0.51,7.13c-1.018,5.092 -1.018,9.166 -1.527,20.879c-0,12.732 -0,14.26 1.018,19.352c1.528,8.658 4.583,16.806 10.185,27.5c2.547,5.093 4.584,9.676 4.584,10.185c-0.51,0.51 -2.037,0.51 -3.565,0Zm214.907,-291.296c-0.509,0 0,-4.583 0.509,-10.185c1.019,-8.148 1.019,-11.713 1.019,-31.574c0,-21.898 0,-22.917 -1.019,-29.028c-2.546,-14.259 -6.111,-27.5 -12.222,-42.269c-1.528,-4.583 -3.055,-8.657 -3.055,-9.166l-0,-1.019l1.018,0c3.056,0 29.028,23.935 40.741,37.176c11.713,13.241 10.694,10.695 10.694,26.991c0,15.787 -0.509,20.88 -3.564,30.046c-2.547,7.639 -5.093,11.713 -11.204,17.824c-6.62,7.13 -10.185,9.167 -17.824,11.204c-3.565,0.509 -5.093,0.509 -5.093,0Zm-297.407,-7.13c-6.111,-2.037 -9.676,-4.583 -15.787,-10.694c-6.111,-6.111 -8.658,-9.676 -11.204,-17.315c-3.055,-9.167 -3.565,-14.768 -3.565,-31.065c0,-21.389 -1.018,-18.333 10.695,-29.537c5.092,-5.602 11.713,-11.713 14.768,-14.259c10.185,-9.167 23.935,-19.352 25.972,-19.352l1.019,0l-0,1.019c-0,-0 -1.019,3.565 -2.546,7.639c-5.093,12.222 -9.167,24.953 -11.204,35.138c-3.056,13.75 -3.056,13.241 -2.546,37.176c-0,19.862 -0,23.426 1.018,31.574c0.509,5.093 1.019,9.676 1.019,10.186l-0,0.509l-2.037,-0c-1.019,-0 -3.565,-0.509 -5.602,-1.019Zm245.972,-52.963c-0.509,-1.018 -4.583,-19.351 -11.713,-51.944c-2.546,-11.204 -5.602,-24.444 -7.13,-30.046c-1.018,-5.093 -2.037,-10.185 -2.037,-10.185l0,-1.019l1.528,0c2.037,0 15.787,5.602 25.972,10.694c8.149,4.075 16.806,9.167 17.315,10.186c2.037,6.111 3.056,25.972 1.019,34.629c-2.547,12.732 -7.639,21.389 -17.824,32.084c-3.056,3.564 -6.111,6.111 -6.111,6.111c-0,-0 -0.51,-0.51 -1.019,-0.51Zm-126.806,-6.111c-5.601,-5.602 -7.638,-8.148 -11.203,-13.24c-12.222,-18.843 -18.843,-43.287 -18.843,-71.297c0,-9.166 0,-9.166 2.546,-9.676c18.843,-4.074 25.973,-5.092 40.232,-6.111c6.111,-0.509 8.657,-0.509 9.167,0c2.037,1.528 4.583,17.315 5.092,28.01c0.509,18.333 -2.037,28.009 -16.805,69.768c-2.037,6.111 -3.056,8.148 -4.074,8.148c-0.51,0 -2.547,-1.528 -6.112,-5.602Zm59.584,5.093c-0,-0.509 -1.528,-4.583 -3.056,-9.167c-8.657,-24.953 -12.222,-34.629 -14.259,-44.305c-1.019,-5.093 -1.019,-7.639 -1.528,-17.824c0,-7.639 0,-13.75 0.509,-16.297c0.51,-6.111 3.056,-16.296 3.565,-17.314c0.51,-0.51 2.037,-0.51 13.75,1.018c8.658,1.019 18.334,2.546 28.01,5.093c11.713,3.055 10.694,2.037 10.694,10.694c0,13.241 -1.019,23.426 -3.565,34.12c-3.055,12.732 -9.166,26.482 -15.787,36.667c-4.074,6.111 -15.278,17.824 -16.805,17.824l-1.019,0l-0.509,-0.509Zm-126.806,-6.111c-9.676,-10.185 -13.75,-17.315 -16.805,-26.991c-2.037,-7.13 -2.037,-10.185 -2.037,-22.407c0.509,-9.676 0.509,-12.732 1.527,-16.297c0.51,-2.546 1.019,-5.092 1.528,-5.601c1.019,-2.038 20.371,-11.204 36.158,-16.297c3.055,-1.018 6.111,-2.037 6.62,-2.037l1.019,0l-0,1.528c-0,0.509 -0.51,3.565 -1.528,6.62c-0.51,3.056 -4.074,18.843 -7.639,35.139c-9.167,39.722 -11.204,50.417 -11.713,51.435c-1.019,1.019 -2.037,0.51 -7.13,-5.092Z" style="fill:#330758;fill-rule:nonzero;"/><path d="M255.139,507.731c-7.639,-0.509 -22.917,-2.546 -23.426,-3.055l4.074,-0l-3.056,-0.509l-3.055,-0l-0,-9.676c-0,-11.713 1.018,-18.843 4.074,-28.01c4.074,-12.222 10.185,-22.407 18.333,-30.555l2.547,-2.037l1.018,0.509c1.019,0.509 9.676,24.445 12.732,35.648c1.018,4.074 1.018,6.111 1.527,15.278c0,5.602 0,11.713 -0.509,13.75l0,3.565l-1.018,-2.037l-0,3.055c-0,1.528 -0,3.565 -0.51,4.074c-0.509,1.019 -1.527,1.019 -12.731,0Zm27.5,0.51c-0.509,-0.51 -1.019,-2.547 -1.528,-5.602c-1.528,-6.62 -1.528,-23.426 0,-29.028c1.528,-9.676 11.713,-38.704 13.241,-39.722l1.018,-0.509l3.056,3.055l3.565,3.056l-0.51,0.509l0,0.509l2.038,1.528c6.111,6.111 13.24,22.407 15.787,36.157c1.018,5.093 1.018,8.658 1.018,16.297l0.509,9.676l-3.055,-0l-3.056,0.509l4.074,-0l-0.509,0.509c-1.528,0.509 -16.296,2.037 -23.935,2.546c-10.695,1.019 -11.713,1.019 -11.713,0.51Zm18.842,-68.241l-5.601,-5.602l5.601,5.602Zm-31.574,67.731c0,-0.509 0.51,-2.546 0.51,-4.583l1.018,-3.055l0,4.074l0.509,-1.528c0,-1.019 0.51,-7.639 0.51,-14.769l-0,-12.731l-0.51,2.037l-0.509,2.546l0,-4.583c0,-4.583 -1.528,-10.695 -5.602,-22.408c-7.639,-21.388 -7.639,-21.898 -10.185,-21.898c-2.037,0 -3.055,1.019 -7.639,6.111c-8.657,8.658 -14.768,19.862 -15.787,27.5c0,1.528 -1.018,5.602 -2.037,8.658l-1.528,6.111l0,-2.037l-0.509,-2.037l0,10.185l-1.018,-4.074l-0,2.037c-0.51,1.528 -0.51,6.62 -0.51,11.204l0,8.148l-5.092,-0l1.528,-0.509l2.037,-0l-3.565,-0.51c-3.565,0 -3.565,0 -6.111,-3.564c-3.565,-6.621 -9.167,-17.825 -11.204,-23.936c-3.565,-11.203 -3.565,-12.222 -3.565,-32.592c0.509,-9.676 0.509,-18.334 1.019,-19.352l0.509,-2.037l-0,4.583l0.509,-3.055c0.509,-1.528 0.509,-4.584 0.509,-6.621l0,-3.565l-5.092,-0.509c-6.111,0 -11.713,1.019 -18.333,4.584c-3.565,1.527 -5.602,3.055 -9.676,6.62c-6.621,6.62 -9.167,10.694 -11.204,19.352c-1.019,2.546 -1.019,5.092 -1.019,15.787c0,6.62 0,12.731 0.51,14.259l0.509,2.037l-0,-4.583l1.018,3.565c0,1.527 0.51,3.564 0.51,4.074l-0,1.018l-1.019,0c-2.037,0 -19.861,-12.222 -24.444,-16.296l-2.547,-2.037l-0.509,-0l-4.583,-3.565c-5.602,-4.583 -31.574,-30.556 -34.63,-35.139l-2.546,-3.055l0.509,-0l-2.546,-2.547c-2.037,-3.055 -11.204,-15.277 -13.75,-20.37l-1.528,-2.546l15.787,-0c10.695,-0 15.278,-0 15.787,-0.51c0,-0.509 0.509,-1.527 0.509,-2.546c0,-1.528 -12.222,-46.852 -14.768,-54.491c-3.056,-9.676 -7.13,-17.314 -10.185,-20.879l-2.547,-2.547l5.093,-5.092c6.111,-6.111 8.657,-10.185 11.204,-18.334c2.546,-8.148 3.055,-12.731 3.055,-27.5c0,-14.768 -0.509,-19.351 -3.565,-28.009c-2.037,-7.129 -4.583,-11.203 -8.657,-15.787c-6.111,-6.111 -10.694,-7.639 -23.426,-8.148l-8.657,0l-0,-2.546c-0,-2.037 2.546,-10.185 6.111,-18.843c2.037,-5.602 9.676,-20.879 12.731,-26.481c7.639,-13.241 19.352,-29.537 20.88,-29.537l0.509,-0l0,29.537l1.019,-3.056l-0,1.019c0.509,0.509 0.509,2.546 1.018,4.583c1.019,5.602 3.565,13.75 6.621,19.352c2.546,4.583 3.564,6.111 8.148,10.694c5.092,5.093 8.657,8.148 10.694,9.167c0.509,0.509 2.037,1.018 3.056,1.018c1.018,0.51 4.074,1.019 6.111,1.528l4.074,1.019l-2.037,-0l-2.037,0.509l4.074,0c3.055,0 4.583,0 5.093,-0.509c0.509,-1.019 0.509,-7.13 -0,-11.713l-0.51,-3.056l0,6.111l-1.018,-6.111c-0.51,-4.583 -0.51,-12.222 -0.51,-31.065c0,-25.463 0,-25.463 1.019,-32.592c2.546,-13.241 6.111,-24.445 11.713,-38.704c4.074,-10.185 5.602,-13.75 7.13,-14.768l1.527,-1.019l0.51,0.509c0.509,0.51 0.509,1.528 -0,4.584l-1.019,4.074l0,-5.093l-0.509,1.528c-0,0.509 -0.509,7.639 -0.509,15.278l-0,13.75l1.018,-4.074l0,4.074c0,5.602 1.528,10.694 5.602,19.352c3.056,5.601 3.056,6.111 13.241,15.787c5.602,5.601 10.185,10.185 10.694,10.185c1.528,-0 2.546,-1.528 2.546,-4.074c0,-1.019 0.51,-5.093 1.528,-9.167l1.528,-7.13l0.509,1.528l0.51,2.037l-0,-3.565c-0,-4.583 16.805,-80.463 17.824,-81.99l0.509,-0.51l0.509,0l0.509,0.51l0,12.222c0,6.62 0,13.75 0.51,14.768l0.509,2.547l-0,-4.584l1.018,6.621c2.547,13.24 5.602,22.407 10.186,33.102c5.601,12.731 11.203,20.879 19.351,29.027l6.621,6.621l-0.509,-0l-0.51,0.509l2.547,-0c3.055,-0 4.583,-1.528 4.583,-4.074c-0,-0.509 1.018,-4.074 2.037,-7.13c9.167,-24.953 13.241,-38.194 14.768,-45.324l1.019,-3.565l0,2.037l0.509,2.037l0,-9.675l0.51,2.037l0.509,2.546l-0,-2.546c0.509,-3.565 0.509,-25.463 -0,-29.028l-0,-2.037l-0.509,2.037l-0.51,2.546l0,-10.185l-0.509,2.037l0,2.037l-1.019,-4.583c-0.509,-2.547 -1.018,-5.093 -1.018,-6.111l-0,-2.037l7.13,-0.51c4.074,0 7.638,0 7.638,0.51c0.51,-0 0,3.055 -1.018,6.62l-1.528,6.62l0,-2.037l-0.509,-2.037l-0,10.185l-0.509,-2.546l-0.51,-2.037l0,15.787c0,8.657 0.51,16.806 0.51,17.824l0.509,1.528l-0,-4.583l1.018,5.601c2.037,7.639 5.093,18.334 11.713,36.158c2.547,8.148 5.602,16.296 5.602,17.824c0.51,3.565 1.528,4.583 4.584,4.074c2.037,-0 2.546,-0.509 8.148,-6.111c3.565,-4.074 6.62,-8.148 9.676,-12.222c2.037,-3.565 4.583,-7.13 5.602,-8.658c2.546,-2.546 5.601,-9.166 6.111,-12.222c0.509,-1.018 1.527,-5.093 2.546,-8.148c2.037,-6.111 5.093,-17.824 5.093,-20.37l-0,-1.019l0.509,2.037l0.509,2.546l0,-4.074c0,-2.037 0,-5.602 0.509,-8.148l0.51,-3.565l-0,3.056l0.509,3.565l-0,-23.936l0.509,0c1.019,0 0.509,-2.546 8.148,32.084c4.074,19.352 6.111,28.518 6.111,30.555l0,4.074l0.51,-2.037l0.509,-1.527l2.546,12.731c2.037,8.148 3.056,14.259 3.056,16.296l-0,3.565l0.509,-2.037l0.509,-1.528l0,1.528c0.509,1.019 0.509,2.546 0.509,3.565c0,1.019 0.51,2.037 0.51,2.546c1.528,1.528 3.055,0.51 9.676,-6.62c12.222,-12.222 18.333,-23.426 21.389,-38.704c1.018,-4.583 1.018,-6.62 1.018,-14.259c-0.509,-5.093 -0.509,-10.185 -1.018,-11.713l-0,-3.056l0.509,0c1.018,0 2.546,2.547 6.111,11.204c7.13,17.315 11.204,31.065 13.75,47.361c1.018,5.602 1.018,47.871 -0,58.565l-0.509,7.639l-1.019,-6.111l0,7.129l0.509,7.13l1.528,0c3.056,0 10.695,-2.037 16.296,-4.583c4.584,-2.547 6.112,-3.056 10.695,-8.148c5.093,-5.093 5.602,-5.602 8.657,-11.713c3.565,-7.13 4.584,-11.204 6.111,-18.334l1.019,-4.583l-0,4.583l0.509,-1.527c0,-1.019 0.509,-7.13 0.509,-13.241l0,-11.204l0.51,0c0.509,0 3.565,3.565 6.111,7.639c11.204,17.315 22.917,44.306 23.935,53.981l0.509,3.056l-21.898,0c-11.713,0 -21.898,0 -21.898,0.509c-1.019,0.51 -0.509,181.297 0,182.315c0.509,0.509 3.056,0.509 11.204,0.509c5.602,0 11.203,0 11.203,0.51l1.019,-0l-1.528,2.546c-3.565,6.62 -11.204,17.315 -17.315,25.463c-5.602,6.111 -32.083,32.592 -38.194,38.194c-11.713,9.167 -31.574,21.898 -34.12,21.898l-0.51,0l0,-1.527c0,-0.51 0.51,-3.056 1.019,-5.602l1.018,-4.074l0,4.074l0.51,-2.037c0.509,-1.528 0.509,-7.639 0.509,-14.259c-0,-10.186 -0,-12.732 -1.019,-15.278c-2.037,-8.658 -4.583,-12.732 -11.203,-19.352c-5.602,-5.093 -9.167,-7.13 -16.297,-9.676c-3.565,-1.019 -5.092,-1.019 -10.185,-1.019l-6.111,0l-0.509,5.093l-0,5.093l0.509,-2.547l0.509,-2.037l0,11.204l0.51,-2.546l0.509,-2.037l-0,3.565c0.509,4.583 0.509,33.101 -0,35.138l-0.509,1.528l-0,-3.565l-1.019,3.565c-0.509,2.037 -1.019,5.093 -1.019,6.111c0,4.584 -6.111,18.843 -12.222,28.519c-2.546,4.074 -2.546,4.074 -5.092,4.074l-2.037,-0l-0,-8.658c-0,-5.601 -0.51,-10.185 -1.019,-13.75l-0.509,-5.601l-0.509,2.037l-0,2.037l-1.528,-6.111c-1.019,-3.056 -2.037,-7.13 -2.037,-8.658c-0.509,-5.092 -3.056,-10.185 -8.148,-18.333c-3.056,-4.074 -10.695,-13.241 -12.732,-14.769c-1.528,-0.509 -3.565,-0.509 -4.583,0.51c-1.528,1.527 -10.695,26.99 -13.241,37.176c-1.528,6.62 -1.528,6.62 -1.528,19.351c0,6.621 0.51,13.241 0.51,14.26l0.509,1.527l-0,-4.074l1.018,3.565c0.51,2.037 0.51,4.074 0.51,4.074l-0.51,1.019l-9.166,-0l-0.51,-0.51Zm-137.5,-48.379c0,-0 -1.018,-1.019 -2.037,-2.546l-2.037,-1.528l1.528,2.037c1.528,1.018 2.546,2.037 2.546,2.037Zm-37.685,-37.685c0,-0 -1.018,-1.019 -2.037,-2.547l-2.037,-1.527l1.528,2.037c1.528,1.018 2.546,2.037 2.546,2.037Zm91.158,-30.047c0.509,-0.509 0.509,-2.546 0.509,-5.092l-0,-4.074l1.018,6.111l1.019,-9.676c1.018,-5.602 1.528,-11.204 1.528,-13.241l0.509,-3.055l29.537,-0l0,4.583c0.509,2.546 1.019,8.657 1.528,12.731c1.018,4.584 1.528,8.658 1.528,9.167c-0,0.509 0.509,1.528 1.018,2.037c0.509,1.019 2.037,1.019 16.806,1.019c18.842,-0 17.824,-0 17.824,-4.584c-0,-2.037 -6.111,-34.629 -16.806,-89.12c-9.676,-47.87 -17.315,-87.083 -17.315,-87.593c0,-0.509 -0.509,-1.018 -0.509,-1.527c-0.509,-1.019 -2.037,-1.019 -18.333,-1.019c-18.843,0 -19.352,0 -19.352,2.037c-0,0.509 -7.639,40.741 -17.315,88.611c-9.676,48.38 -17.315,88.611 -17.315,89.63c0,1.528 0.51,2.546 0.51,3.055c0.509,0.51 5.092,0.51 16.805,0.51c11.713,-0 16.296,-0 16.806,-0.51Zm154.814,-1.018c0.51,-1.019 1.019,-5.602 1.019,-35.648l0.509,-34.63l0.509,-0.509c0.51,-0 4.075,3.055 5.093,5.092c1.528,3.056 3.565,10.186 11.713,38.704c4.074,14.769 8.148,27.5 8.148,28.009c1.019,1.019 36.158,1.019 37.176,0c0,-0.509 0.509,-1.527 0.509,-2.546c0,-2.037 -13.75,-52.963 -16.296,-59.074c-3.055,-8.148 -5.602,-13.241 -8.148,-16.296l-2.546,-2.547l5.092,-5.092c5.093,-5.093 7.639,-9.167 10.185,-16.806c3.056,-8.657 3.565,-12.731 3.565,-29.028c0,-18.842 -1.018,-24.444 -5.602,-34.629c-2.546,-5.602 -9.166,-12.222 -13.75,-14.259c-6.111,-3.056 -7.639,-3.056 -39.213,-3.056c-29.027,0 -29.027,0 -29.537,1.528c-1.018,1.528 -1.018,7.639 -1.018,91.157l-0,90.648l16.296,0c15.278,0 15.278,0 16.296,-1.018Zm-127.824,-340.185l-0.509,-0l-1.018,1.018l0.509,-0.509l1.018,-0l0,-0.509Zm119.676,450.694c0,-0.509 2.037,-5.092 4.584,-10.694c5.092,-9.676 7.639,-16.806 10.185,-24.954c1.018,-5.093 1.018,-6.62 1.528,-17.824c-0,-8.658 -0,-14.769 -0.51,-17.824c-0.509,-2.546 -0.509,-7.13 -1.018,-9.676l-0,-5.093l4.074,0c4.583,0 9.167,1.019 14.259,3.565c4.074,2.546 13.75,11.713 15.787,15.787c3.056,6.621 3.565,9.676 3.565,21.898c0,6.111 0,12.223 -0.509,14.26c-1.019,5.092 -2.547,11.713 -3.056,12.731c-2.546,2.546 -31.065,13.75 -43.287,17.315c-2.037,-0 -3.565,0.509 -4.074,1.018l-1.018,0l-0.51,-0.509Zm-122.731,-1.528c-6.621,-1.527 -21.898,-7.129 -32.084,-11.713c-9.675,-4.583 -12.731,-6.111 -13.75,-7.639c-1.527,-3.564 -2.037,-9.166 -2.546,-21.898c0,-11.713 0,-12.731 1.019,-16.805c2.037,-6.621 3.565,-9.676 9.676,-15.787c6.111,-6.111 9.166,-7.639 15.277,-9.676c2.547,-0.509 5.093,-1.019 7.639,-1.019l4.074,0l0,3.056c0,2.037 -0.509,5.602 -0.509,9.167c-0.509,3.564 -1.018,9.675 -1.018,17.314c-0,10.186 -0,13.241 1.018,17.315c1.528,8.658 4.583,16.806 10.185,27.5c2.547,5.093 4.584,9.676 4.584,10.185c-0.51,0.51 -2.037,0.51 -3.565,0Zm-196.065,-107.963l11.713,0l6.111,0.51l-23.426,-0l5.602,-0.51Zm513.333,0l15.278,0l8.148,0.51l-31.065,-0l7.639,-0.51Zm-516.898,-4.583c-0.509,0 -0.509,-173.657 -0.509,-174.167l30.046,0c30.047,0.51 30.047,0.51 33.611,1.528c3.056,1.528 4.074,2.037 7.639,5.093c8.658,8.657 12.222,22.407 11.713,44.305c-0.509,14.26 -2.037,21.898 -6.62,30.556c-2.546,4.583 -9.167,11.713 -13.241,13.75c-3.565,2.037 -3.055,2.546 1.019,6.62c3.564,3.056 4.074,3.565 6.62,9.167c1.528,3.055 3.565,7.13 4.074,9.167c2.037,5.601 14.769,51.435 14.769,52.963l-0,1.527l-14.769,0c-12.222,0 -14.259,-0.509 -14.768,-1.018c-0.51,-0.509 -4.075,-13.241 -8.149,-28.009c-4.583,-14.769 -8.657,-29.028 -9.676,-31.575c-3.055,-8.148 -6.111,-11.203 -12.222,-11.203c-2.037,-0 -3.055,-0 -3.565,0.509c-0.509,0.509 -0.509,11.204 -0.509,36.157l0,35.139l-12.731,0c-7.13,0 -12.732,0 -12.732,-0.509Zm43.287,-102.361l-1.528,-0.509l0.51,-0c2.037,-0 7.129,-2.547 8.657,-4.074c3.565,-3.056 5.093,-9.167 5.093,-17.315c-0.51,-8.658 -2.547,-13.241 -7.13,-15.787c-2.037,-1.019 -3.055,-1.528 -12.222,-1.528c-7.13,-0 -10.185,-0 -10.695,0.509c-0.509,0.509 -0.509,3.565 -0.509,19.352c0,13.75 0,18.843 0.509,19.352c0.51,0.509 3.565,0.509 9.676,0.509l9.676,0l-2.037,-0.509Zm404.352,102.361c-0.509,0 -0.509,-173.657 -0.509,-174.167l30.046,0c31.574,0.51 31.574,0.51 36.667,3.056c3.055,1.528 8.148,7.639 10.185,11.713c4.583,9.167 5.602,15.787 5.602,33.102c-0,14.259 -0.509,19.352 -3.565,27.5c-3.056,8.148 -8.657,16.296 -14.769,19.352c-1.527,1.018 -3.055,2.037 -3.564,2.546l-0.51,0.509l4.074,4.074c4.075,4.074 5.093,4.584 7.13,9.167c1.019,2.037 2.546,6.111 3.056,7.639c2.037,4.583 15.277,52.453 15.277,54.491l0,1.527l-14.259,0c-11.204,0 -14.768,0 -15.278,-0.509c0,-0.509 -3.055,-11.204 -6.62,-23.426c-12.222,-42.268 -13.241,-44.305 -18.333,-46.852c-2.547,-1.018 -7.639,-1.528 -8.658,-0.509c-0.509,0.509 -0.509,11.204 -0.509,36.157l0,35.139l-12.731,0c-7.13,0 -12.732,0 -12.732,-0.509Zm43.287,-102.361l-1.528,-0.509l0.51,-0c2.037,-0 7.129,-2.547 8.657,-4.074c2.037,-1.528 3.056,-4.074 4.583,-8.149c1.019,-4.074 0.51,-13.75 -1.018,-17.824c-1.528,-3.564 -5.093,-7.129 -8.148,-8.148c-2.547,-0.509 -19.352,-0.509 -20.371,0c-0.509,0.509 -0.509,5.602 -0.509,19.352c0,13.75 0,18.843 0.509,19.352c0.51,0.509 3.565,0.509 9.676,0.509l9.676,0l-2.037,-0.509Zm-13.241,83.009l0,-47.361l1.019,0c0.509,0 1.528,0.509 2.546,1.528c2.037,1.528 4.074,5.602 6.111,13.241c1.019,3.564 1.019,3.564 -0.509,8.657c-1.018,2.546 -1.528,5.602 -1.528,6.62c0,1.019 -0.509,3.565 -1.018,5.093l-1.019,3.565l-0.509,-1.528l-0.509,-1.019l-1.528,4.584c-1.019,2.546 -2.037,5.092 -2.546,5.602l-0.51,1.018Zm-478.703,-159.398l2.037,0l1.527,0.509l-4.583,0l1.019,-0.509Zm416.064,-7.639c0.51,-3.565 0.51,-9.676 1.019,-13.241c0.509,-4.583 0.509,-13.75 0.509,-25.463c-0.509,-16.805 -0.509,-19.861 -1.528,-24.953c-2.546,-14.26 -6.62,-27.5 -12.222,-41.76c-1.528,-4.583 -3.055,-8.657 -3.055,-9.166l-0,-1.019l1.018,0c0.509,0 3.565,2.037 7.13,5.093c9.676,7.13 40.231,38.194 39.722,39.722c0,0 1.019,1.528 2.546,2.546c2.037,2.037 2.037,2.037 2.037,16.806c0,15.787 -0.509,20.88 -3.564,30.046c-2.547,8.148 -4.584,11.204 -12.223,18.334c-8.148,8.148 -11.713,10.185 -18.333,10.185l-3.056,-0l0,-7.13Zm32.593,-70.787c0,-0.509 -0.509,-1.018 -1.528,-1.528l-1.018,-1.018l1.018,1.018c0.51,1.019 1.019,1.528 1.528,1.528Zm-333.055,70.278c-5.093,-2.037 -8.149,-4.074 -13.75,-9.676c-4.584,-5.093 -5.602,-6.62 -7.639,-10.694c-3.056,-5.602 -4.584,-11.713 -6.111,-19.352c-0.51,-4.074 -0.51,-8.148 -0.51,-21.389c0.51,-15.787 0.51,-15.787 14.769,-30.047c9.676,-9.675 16.296,-15.787 20.879,-19.351c9.167,-7.13 14.26,-10.695 15.787,-10.695l1.019,0l-0,1.019c-0,-0 -1.019,3.565 -2.546,7.639c-5.093,11.713 -9.167,24.953 -11.204,34.12c-2.546,13.241 -2.546,14.259 -3.056,33.611c0,11.713 0,20.88 0.51,25.463c0.509,3.565 0.509,9.676 1.018,13.241l0,7.129l-3.565,0c-2.037,0 -4.074,-0.509 -5.601,-1.018Zm248.518,-51.945c0,-0.509 -0.509,-2.037 -0.509,-3.564l-0,-3.056l-0.509,1.019l-0,1.527l-1.528,-5.092c-0.51,-3.056 -4.074,-18.334 -7.639,-34.121c-3.056,-15.787 -7.13,-33.101 -8.658,-38.703c-1.018,-5.093 -2.037,-10.185 -2.037,-10.185l0,-1.019l1.528,0c2.037,0 15.787,5.602 25.972,10.694c8.149,4.075 16.806,9.167 17.315,10.186c2.037,6.111 3.056,25.972 1.019,34.629c-2.547,12.732 -7.639,21.389 -17.824,32.084c-3.056,3.564 -6.111,6.111 -6.111,6.111c-0,-0 -0.51,-0.51 -1.019,-0.51Zm-126.806,-6.111c-5.601,-5.602 -7.638,-8.148 -11.203,-13.24c-10.185,-15.787 -16.297,-35.139 -18.334,-57.037c-0.509,-8.658 -0.509,-22.917 0,-23.426c1.019,-0.51 13.241,-3.056 17.825,-3.565l4.074,-0l-1.019,-1.019l7.13,-0.509c11.713,-1.528 22.916,-2.546 23.426,-1.528c1.018,0.51 3.055,8.658 4.074,15.278c0.509,4.074 0.509,7.639 0.509,18.333c-0.509,12.223 -0.509,14.26 -1.528,19.352c-2.546,9.167 -6.111,20.371 -14.768,44.815c-2.037,6.111 -3.056,8.148 -4.074,8.148c-0.51,0 -2.547,-1.528 -6.112,-5.602Zm59.584,5.093c-0,-0.509 -1.528,-4.583 -3.056,-9.167c-8.657,-24.953 -12.222,-34.629 -14.259,-44.305c-1.019,-5.093 -1.019,-7.639 -1.528,-17.824c0,-7.639 0,-13.75 0.509,-16.297c0.51,-6.111 3.056,-16.296 3.565,-17.314c0.51,-0.51 2.037,-0.51 13.75,1.018c8.658,1.019 18.334,2.546 28.01,5.093c11.713,3.055 10.694,2.037 10.694,10.694c0,13.241 -1.019,23.426 -3.565,34.12c-3.055,12.732 -9.166,26.482 -15.787,36.667c-4.074,6.111 -15.278,17.824 -16.805,17.824l-1.019,0l-0.509,-0.509Zm-128.334,-8.148c-8.657,-9.167 -12.222,-15.278 -15.277,-24.954c-2.037,-7.13 -2.037,-10.185 -2.037,-22.407c0.509,-9.676 0.509,-12.732 1.527,-16.297c0.51,-2.546 1.019,-5.092 1.528,-5.601c1.019,-2.038 20.371,-11.204 36.158,-16.297c3.055,-1.018 6.111,-2.037 6.62,-2.037l1.019,0l-0,1.019c-0,1.018 -1.019,6.111 -2.547,12.222c-1.528,6.111 -2.546,11.713 -3.055,13.241l-0,2.037l-0.51,-1.528l-0.509,-1.019l0,2.547c0,2.546 -3.565,19.352 -11.713,54.49l-1.528,8.658l-1.018,-2.037l-0,2.037l-0.509,2.546l-0.51,0c-0.509,0 -3.564,-3.055 -7.639,-6.62Zm-20.37,248.009c-0.509,0 -0.509,-1.018 -0.509,-1.528c-0,-1.018 7.639,-40.231 16.805,-87.083l17.315,-85.556l29.537,0l0,1.019c0,0.509 7.639,38.704 16.806,85.046c11.204,57.037 16.296,84.028 16.296,86.065l0,2.546l-25.463,0l-1.018,-10.185l-0,6.62l-2.037,-11.712c-1.019,-6.621 -2.037,-12.732 -2.547,-13.241c-0.509,-1.019 -0.509,-1.019 -17.315,-1.019c-16.805,0 -17.314,0 -17.824,1.019c-0.509,0.509 -1.527,6.62 -2.546,13.241l-1.528,12.731l-0.509,-3.056l0,-3.055l-0.509,4.074l-0,4.583l-12.732,0c-6.62,0 -12.222,0 -12.222,-0.509Zm59.583,-64.167c0.51,-0.509 0.51,-2.037 0.51,-5.092l-0,-4.074l-0.51,2.546l0,2.546l-5.092,-31.065c-2.546,-16.805 -5.093,-31.064 -5.602,-31.574c-0.509,0 -1.019,-0.509 -1.528,-0.509l-0.509,0l-0.509,1.019c-0.51,1.527 -10.185,61.111 -10.185,63.657c-0,0.509 -0,2.037 0.509,2.037l-0,1.019l11.203,-0c7.639,-0 11.204,-0 11.713,-0.51Zm95.741,64.167c-0.509,0 -0.509,-39.722 -0.509,-87.083l-0,-87.084l28.009,0c25.972,0 28.009,0 31.574,1.019c5.602,1.528 6.621,2.037 10.695,6.111c3.565,4.074 5.092,7.13 7.129,13.241c3.056,8.657 3.056,11.203 3.056,26.99c-0,13.241 -0,14.769 -1.019,19.862c-1.018,6.111 -4.074,13.24 -6.62,17.314c-2.546,4.074 -7.13,8.658 -10.694,10.695c-4.075,2.037 -4.075,3.055 -0.51,5.602c1.528,1.018 3.565,2.546 4.584,3.565c1.527,2.037 4.074,7.638 6.62,14.768c2.546,6.111 14.769,51.435 14.769,53.982l-0,1.527l-28.519,0l-7.13,-23.935c-8.148,-29.028 -9.166,-33.102 -11.203,-38.194c-1.528,-4.584 -4.074,-7.639 -6.621,-9.167c-2.037,-0.509 -7.129,-0.509 -8.148,0c-0.509,0.509 -0.509,11.204 -0.509,36.157l-0,35.139l-12.732,0c-7.129,0 -12.222,0 -12.222,-0.509Zm45.324,-103.889c4.074,-2.037 5.093,-3.055 6.621,-6.111c2.037,-4.074 2.546,-6.62 2.546,-14.259c-0.509,-6.111 -0.509,-7.13 -1.528,-9.676c-1.528,-3.056 -5.092,-6.621 -7.639,-7.13c-2.546,-0.509 -18.842,-0.509 -19.861,0c-1.018,1.019 -1.018,37.176 0,38.195c0.509,0.509 2.546,0.509 8.658,0.509c7.129,-0.509 8.148,-0.509 11.203,-1.528Zm-315.231,-2.546l-0,-31.574l6.62,-0c6.621,-0 7.13,-0 8.658,1.018c1.018,1.019 2.546,2.547 3.055,3.565c1.019,2.037 1.019,3.056 1.019,10.695c-0,9.166 -0.51,10.694 -3.056,13.24c-2.037,2.547 -4.074,3.056 -11.204,3.056l-5.092,-0Zm445.092,-15.787l0.51,-15.278l7.639,-0.509c8.148,-0 8.148,-0 9.675,1.528c2.037,1.527 2.037,1.527 2.037,13.24c0,11.713 0,11.713 -1.527,12.732c-0.51,1.018 -3.056,2.037 -4.584,2.546c-3.055,1.528 -4.583,1.528 -8.657,1.528l-5.093,-0l0,-15.787Zm-289.768,49.907c-0,-2.546 -0,-5.092 0.509,-6.111l0.509,-2.037l0,5.093l2.037,-11.713c1.019,-7.13 2.037,-13.75 2.037,-16.297c0,-4.074 0.51,-9.166 1.528,-11.203l0,-0.51l1.019,0.51c0.509,0.509 0.509,2.037 0.509,5.602c0,3.564 1.019,9.166 2.546,19.861l2.547,14.768l-0,-5.092l0.509,2.037c0.509,1.018 0.509,3.564 0.509,5.601l0,3.565l-14.259,0l-0,-4.074Zm143.611,-34.629l-0,-15.787l0.509,-14.769l8.148,0c8.149,0 8.149,0 10.186,2.037c2.546,2.037 2.546,2.037 2.546,11.204c-0,10.694 -0,12.222 -2.037,14.259c-2.037,3.056 -4.584,3.565 -12.222,3.565l-6.621,-0l-0.509,-0.509Z" style="fill:#a90004;fill-rule:nonzero;"/><path d="M255.139,507.731c-7.639,-0.509 -22.917,-2.546 -23.426,-3.055l4.074,-0l-3.056,-0.509l-3.055,-0l-0,-9.676c-0,-11.713 1.018,-18.843 4.074,-28.01c4.074,-12.222 10.185,-22.407 18.333,-30.555l2.547,-2.037l1.018,0.509c1.019,0.509 9.676,24.445 12.732,35.648c1.018,4.074 1.018,6.111 1.527,15.278c0,5.602 0,11.713 -0.509,13.75l0,3.565l-1.018,-2.037l-0,3.055c-0,1.528 -0,3.565 -0.51,4.074c-0.509,1.019 -1.527,1.019 -12.731,0Zm27.5,0.51c-0.509,-0.51 -1.019,-2.547 -1.528,-5.602c-1.528,-6.62 -1.528,-23.426 0,-29.028c1.528,-9.676 11.713,-38.704 13.241,-39.722l1.018,-0.509l3.056,3.055l3.565,3.056l-0.51,0.509l0,0.509l2.038,1.528c6.111,6.111 13.24,22.407 15.787,36.157c1.018,5.093 1.018,8.658 1.018,16.297l0.509,9.676l-3.055,-0l-3.056,0.509l4.074,-0l-0.509,0.509c-1.528,0.509 -16.296,2.037 -23.935,2.546c-10.695,1.019 -11.713,1.019 -11.713,0.51Zm18.842,-68.241l-5.601,-5.602l5.601,5.602Zm31.065,61.111c0,-0.509 2.037,-5.092 4.584,-10.694c5.092,-9.676 7.639,-16.806 10.185,-24.954c1.018,-5.093 1.018,-6.62 1.528,-17.824c-0,-8.658 -0,-14.769 -0.51,-17.824c-0.509,-2.546 -0.509,-7.13 -1.018,-9.676l-0,-5.093l4.074,0c4.583,0 9.167,1.019 14.259,3.565c4.074,2.546 13.75,11.713 15.787,15.787c3.056,6.621 3.565,9.676 3.565,21.898c0,6.111 0,12.223 -0.509,14.26c-1.019,5.092 -2.547,11.713 -3.056,12.731c-2.546,2.546 -31.065,13.75 -43.287,17.315c-2.037,-0 -3.565,0.509 -4.074,1.018l-1.018,0l-0.51,-0.509Zm-122.731,-1.528c-6.621,-1.527 -21.898,-7.129 -32.084,-11.713c-9.675,-4.583 -12.731,-6.111 -13.75,-7.639c-1.527,-3.564 -2.037,-9.166 -2.546,-21.898c0,-11.713 0,-12.731 1.019,-16.805c2.037,-6.621 3.565,-9.676 9.676,-15.787c6.111,-6.111 9.166,-7.639 15.277,-9.676c2.547,-0.509 5.093,-1.019 7.639,-1.019l4.074,0l0,3.056c0,2.037 -0.509,5.602 -0.509,9.167c-0.509,3.564 -1.018,9.675 -1.018,17.314c-0,10.186 -0,13.241 1.018,17.315c1.528,8.658 4.583,16.806 10.185,27.5c2.547,5.093 4.584,9.676 4.584,10.185c-0.51,0.51 -2.037,0.51 -3.565,0Zm-196.065,-107.963l11.713,0l6.111,0.51l-23.426,-0l5.602,-0.51Zm513.333,0l15.278,0l8.148,0.51l-31.065,-0l7.639,-0.51Zm-516.898,-4.583c-0.509,0 -0.509,-173.657 -0.509,-174.167l30.046,0c30.047,0.51 30.047,0.51 33.611,1.528c3.056,1.528 4.074,2.037 7.639,5.093c8.658,8.657 12.222,22.407 11.713,44.305c-0.509,14.26 -2.037,21.898 -6.62,30.556c-2.546,4.583 -9.167,11.713 -13.241,13.75c-3.565,2.037 -3.055,2.546 1.019,6.62c3.564,3.056 4.074,3.565 6.62,9.167c1.528,3.055 3.565,7.13 4.074,9.167c2.037,5.601 14.769,51.435 14.769,52.963l-0,1.527l-14.769,0c-12.222,0 -14.259,-0.509 -14.768,-1.018c-0.51,-0.509 -4.075,-13.241 -8.149,-28.009c-4.583,-14.769 -8.657,-29.028 -9.676,-31.575c-3.055,-8.148 -6.111,-11.203 -12.222,-11.203c-2.037,-0 -3.055,-0 -3.565,0.509c-0.509,0.509 -0.509,11.204 -0.509,36.157l0,35.139l-12.731,0c-7.13,0 -12.732,0 -12.732,-0.509Zm43.287,-102.361l-1.528,-0.509l0.51,-0c2.037,-0 7.129,-2.547 8.657,-4.074c3.565,-3.056 5.093,-9.167 5.093,-17.315c-0.51,-8.658 -2.547,-13.241 -7.13,-15.787c-2.037,-1.019 -3.055,-1.528 -12.222,-1.528c-7.13,-0 -10.185,-0 -10.695,0.509c-0.509,0.509 -0.509,3.565 -0.509,19.352c0,13.75 0,18.843 0.509,19.352c0.51,0.509 3.565,0.509 9.676,0.509l9.676,0l-2.037,-0.509Zm103.889,102.361c-0.509,0 -0.509,-1.018 -0.509,-1.528c-0,-1.018 7.639,-40.231 16.805,-87.083l17.315,-85.556l29.537,0l0,1.019c0,0.509 7.639,38.704 16.806,85.046c11.204,57.037 16.296,84.028 16.296,86.065l0,2.546l-25.463,0l-1.018,-10.185l-0,6.62l-2.037,-11.712c-1.019,-6.621 -2.037,-12.732 -2.547,-13.241c-0.509,-1.019 -0.509,-1.019 -17.315,-1.019c-16.805,0 -17.314,0 -17.824,1.019c-0.509,0.509 -1.527,6.62 -2.546,13.241l-1.528,12.731l-0.509,-3.056l0,-3.055l-0.509,4.074l-0,4.583l-12.732,0c-6.62,0 -12.222,0 -12.222,-0.509Zm59.583,-64.167c0.51,-0.509 0.51,-2.037 0.51,-5.092l-0,-4.074l-0.51,2.546l0,2.546l-5.092,-31.065c-2.546,-16.805 -5.093,-31.064 -5.602,-31.574c-0.509,0 -1.019,-0.509 -1.528,-0.509l-0.509,0l-0.509,1.019c-0.51,1.527 -10.185,61.111 -10.185,63.657c-0,0.509 -0,2.037 0.509,2.037l-0,1.019l11.203,-0c7.639,-0 11.204,-0 11.713,-0.51Zm95.741,64.167c-0.509,0 -0.509,-39.722 -0.509,-87.083l-0,-87.084l28.009,0c25.972,0 28.009,0 31.574,1.019c5.602,1.528 6.621,2.037 10.695,6.111c3.565,4.074 5.092,7.13 7.129,13.241c3.056,8.657 3.056,11.203 3.056,26.99c-0,13.241 -0,14.769 -1.019,19.862c-1.018,6.111 -4.074,13.24 -6.62,17.314c-2.546,4.074 -7.13,8.658 -10.694,10.695c-4.075,2.037 -4.075,3.055 -0.51,5.602c1.528,1.018 3.565,2.546 4.584,3.565c1.527,2.037 4.074,7.638 6.62,14.768c2.546,6.111 14.769,51.435 14.769,53.982l-0,1.527l-28.519,0l-7.13,-23.935c-8.148,-29.028 -9.166,-33.102 -11.203,-38.194c-1.528,-4.584 -4.074,-7.639 -6.621,-9.167c-2.037,-0.509 -7.129,-0.509 -8.148,0c-0.509,0.509 -0.509,11.204 -0.509,36.157l-0,35.139l-12.732,0c-7.129,0 -12.222,0 -12.222,-0.509Zm45.324,-103.889c4.074,-2.037 5.093,-3.055 6.621,-6.111c2.037,-4.074 2.546,-6.62 2.546,-14.259c-0.509,-6.111 -0.509,-7.13 -1.528,-9.676c-1.528,-3.056 -5.092,-6.621 -7.639,-7.13c-2.546,-0.509 -18.842,-0.509 -19.861,0c-1.018,1.019 -1.018,37.176 0,38.195c0.509,0.509 2.546,0.509 8.658,0.509c7.129,-0.509 8.148,-0.509 11.203,-1.528Zm99.815,103.889c-0.509,0 -0.509,-173.657 -0.509,-174.167l30.046,0c31.574,0.51 31.574,0.51 36.667,3.056c3.055,1.528 8.148,7.639 10.185,11.713c4.583,9.167 5.602,15.787 5.602,33.102c-0,14.259 -0.509,19.352 -3.565,27.5c-3.056,8.148 -8.657,16.296 -14.769,19.352c-1.527,1.018 -3.055,2.037 -3.564,2.546l-0.51,0.509l4.074,4.074c4.075,4.074 5.093,4.584 7.13,9.167c1.019,2.037 2.546,6.111 3.056,7.639c2.037,4.583 15.277,52.453 15.277,54.491l0,1.527l-14.259,0c-11.204,0 -14.768,0 -15.278,-0.509c0,-0.509 -3.055,-11.204 -6.62,-23.426c-12.222,-42.268 -13.241,-44.305 -18.333,-46.852c-2.547,-1.018 -7.639,-1.528 -8.658,-0.509c-0.509,0.509 -0.509,11.204 -0.509,36.157l0,35.139l-12.731,0c-7.13,0 -12.732,0 -12.732,-0.509Zm43.287,-102.361l-1.528,-0.509l0.51,-0c2.037,-0 7.129,-2.547 8.657,-4.074c2.037,-1.528 3.056,-4.074 4.583,-8.149c1.019,-4.074 0.51,-13.75 -1.018,-17.824c-1.528,-3.564 -5.093,-7.129 -8.148,-8.148c-2.547,-0.509 -19.352,-0.509 -20.371,0c-0.509,0.509 -0.509,5.602 -0.509,19.352c0,13.75 0,18.843 0.509,19.352c0.51,0.509 3.565,0.509 9.676,0.509l9.676,0l-2.037,-0.509Zm-491.944,-76.389l2.037,0l1.527,0.509l-4.583,0l1.019,-0.509Zm416.064,-7.639c0.51,-3.565 0.51,-9.676 1.019,-13.241c0.509,-4.583 0.509,-13.75 0.509,-25.463c-0.509,-16.805 -0.509,-19.861 -1.528,-24.953c-2.546,-14.26 -6.62,-27.5 -12.222,-41.76c-1.528,-4.583 -3.055,-8.657 -3.055,-9.166l-0,-1.019l1.018,0c0.509,0 3.565,2.037 7.13,5.093c9.676,7.13 40.231,38.194 39.722,39.722c0,0 1.019,1.528 2.546,2.546c2.037,2.037 2.037,2.037 2.037,16.806c0,15.787 -0.509,20.88 -3.564,30.046c-2.547,8.148 -4.584,11.204 -12.223,18.334c-8.148,8.148 -11.713,10.185 -18.333,10.185l-3.056,-0l0,-7.13Zm32.593,-70.787c0,-0.509 -0.509,-1.018 -1.528,-1.528l-1.018,-1.018l1.018,1.018c0.51,1.019 1.019,1.528 1.528,1.528Zm-333.055,70.278c-5.093,-2.037 -8.149,-4.074 -13.75,-9.676c-4.584,-5.093 -5.602,-6.62 -7.639,-10.694c-3.056,-5.602 -4.584,-11.713 -6.111,-19.352c-0.51,-4.074 -0.51,-8.148 -0.51,-21.389c0.51,-15.787 0.51,-15.787 14.769,-30.047c9.676,-9.675 16.296,-15.787 20.879,-19.351c9.167,-7.13 14.26,-10.695 15.787,-10.695l1.019,0l-0,1.019c-0,-0 -1.019,3.565 -2.546,7.639c-5.093,11.713 -9.167,24.953 -11.204,34.12c-2.546,13.241 -2.546,14.259 -3.056,33.611c0,11.713 0,20.88 0.51,25.463c0.509,3.565 0.509,9.676 1.018,13.241l0,7.129l-3.565,0c-2.037,0 -4.074,-0.509 -5.601,-1.018Zm248.518,-51.945c0,-0.509 -0.509,-2.037 -0.509,-3.564l-0,-3.056l-0.509,1.019l-0,1.527l-1.528,-5.092c-0.51,-3.056 -4.074,-18.334 -7.639,-34.121c-3.056,-15.787 -7.13,-33.101 -8.658,-38.703c-1.018,-5.093 -2.037,-10.185 -2.037,-10.185l0,-1.019l1.528,0c2.037,0 15.787,5.602 25.972,10.694c8.149,4.075 16.806,9.167 17.315,10.186c2.037,6.111 3.056,25.972 1.019,34.629c-2.547,12.732 -7.639,21.389 -17.824,32.084c-3.056,3.564 -6.111,6.111 -6.111,6.111c-0,-0 -0.51,-0.51 -1.019,-0.51Zm-126.806,-6.111c-5.601,-5.602 -7.638,-8.148 -11.203,-13.24c-10.185,-15.787 -16.297,-35.139 -18.334,-57.037c-0.509,-8.658 -0.509,-22.917 0,-23.426c1.019,-0.51 13.241,-3.056 17.825,-3.565l4.074,-0l-1.019,-1.019l7.13,-0.509c11.713,-1.528 22.916,-2.546 23.426,-1.528c1.018,0.51 3.055,8.658 4.074,15.278c0.509,4.074 0.509,7.639 0.509,18.333c-0.509,12.223 -0.509,14.26 -1.528,19.352c-2.546,9.167 -6.111,20.371 -14.768,44.815c-2.037,6.111 -3.056,8.148 -4.074,8.148c-0.51,0 -2.547,-1.528 -6.112,-5.602Zm59.584,5.093c-0,-0.509 -1.528,-4.583 -3.056,-9.167c-8.657,-24.953 -12.222,-34.629 -14.259,-44.305c-1.019,-5.093 -1.019,-7.639 -1.528,-17.824c0,-7.639 0,-13.75 0.509,-16.297c0.51,-6.111 3.056,-16.296 3.565,-17.314c0.51,-0.51 2.037,-0.51 13.75,1.018c8.658,1.019 18.334,2.546 28.01,5.093c11.713,3.055 10.694,2.037 10.694,10.694c0,13.241 -1.019,23.426 -3.565,34.12c-3.055,12.732 -9.166,26.482 -15.787,36.667c-4.074,6.111 -15.278,17.824 -16.805,17.824l-1.019,0l-0.509,-0.509Zm-128.334,-8.148c-8.657,-9.167 -12.222,-15.278 -15.277,-24.954c-2.037,-7.13 -2.037,-10.185 -2.037,-22.407c0.509,-9.676 0.509,-12.732 1.527,-16.297c0.51,-2.546 1.019,-5.092 1.528,-5.601c1.019,-2.038 20.371,-11.204 36.158,-16.297c3.055,-1.018 6.111,-2.037 6.62,-2.037l1.019,0l-0,1.019c-0,1.018 -1.019,6.111 -2.547,12.222c-1.528,6.111 -2.546,11.713 -3.055,13.241l-0,2.037l-0.51,-1.528l-0.509,-1.019l0,2.547c0,2.546 -3.565,19.352 -11.713,54.49l-1.528,8.658l-1.018,-2.037l-0,2.037l-0.509,2.546l-0.51,0c-0.509,0 -3.564,-3.055 -7.639,-6.62Z" style="fill:#3d5065;fill-rule:nonzero;"/><path d="M266.343,508.241l-0,-1.019l-9.676,0c-6.111,0 -11.713,-0.509 -15.787,-1.018l-6.111,-0.51l1.527,-0.509l2.037,0l-4.074,-1.018l-4.074,-0.51l-0.509,-8.657c-0,-5.093 -0,-10.185 0.509,-12.222l0,-3.056l1.019,3.056l-0,-1.528c-0,-0.509 0.509,-2.546 1.018,-4.074c0.509,-1.528 1.019,-4.583 2.037,-6.62c0.51,-2.547 1.019,-5.602 1.528,-6.621c1.019,-4.583 5.602,-13.241 8.148,-15.787c1.019,-1.018 1.528,-2.037 1.528,-2.546c-0,-1.019 8.657,-9.676 9.676,-9.676l1.018,-0l0,1.528c0,1.527 0.51,2.546 5.093,15.787c3.056,9.166 7.13,21.389 7.13,22.916l-0,1.528l0.509,-2.037l0.509,-1.528l0,28.519l-1.018,-2.037l-0,0.509c-0.51,0.509 -0.51,2.546 -1.019,4.074c0,1.528 -0.509,2.546 -0.509,3.056l-0.509,-0Zm16.805,-0.51c-0.509,0 -0.509,-1.018 -0.509,-2.037c-0,-1.018 -0.509,-3.055 -0.509,-4.583l-0.51,-2.037l-1.018,3.056l-0,-28.519l1.018,4.074l0,-2.037c0.51,-3.055 3.565,-11.713 8.149,-24.954c2.037,-6.62 4.074,-12.731 4.074,-13.75l-0,-1.527l1.018,-0c1.019,-0 9.676,8.657 9.676,9.676c0,0.509 0.509,1.527 1.528,2.546c2.546,2.546 7.129,11.204 8.148,15.278c1.018,3.564 1.528,6.62 2.546,10.694c0.51,1.528 1.528,5.093 2.037,7.13l0.51,3.565l0.509,-1.019l0.509,-0.509l0,20.37l-3.055,1.019c-2.038,-0 -4.075,0.509 -5.093,1.018l-2.037,0l1.018,0.509l1.528,0.51l-6.111,0.509c-3.055,0.509 -9.676,0.509 -14.768,0.509l-8.658,0l0.509,0.509l0,0.51c0,-0 -0.509,-0 -0.509,-0.51Zm51.945,-8.657c-0,0 2.037,-4.074 4.074,-8.657c4.583,-9.167 8.148,-18.334 9.166,-24.954c0.51,-3.565 0.51,-28.009 -0.509,-43.796l0,-6.111l2.546,-0c1.528,-0 4.074,0.509 6.111,1.527c1.528,0.51 3.565,1.019 4.584,1.019c3.055,-0 6.62,2.546 12.731,9.167c7.13,7.129 7.639,8.148 9.167,15.787l0.509,3.055l0.509,-2.037l0.51,-1.528l-0,30.047l-1.019,-3.056l0,1.528c0,0.509 -1.018,3.565 -1.528,6.111c-1.527,5.093 -1.527,5.093 -7.129,7.639c-12.222,6.111 -34.63,14.259 -38.704,14.259l-1.018,0Zm-134.445,-4.074c-4.583,-1.528 -9.167,-3.056 -10.185,-3.565c-1.528,-0.509 -2.546,-1.018 -3.565,-1.018c-0.509,-0 -2.037,-0.51 -3.565,-1.019c-4.583,-1.528 -16.296,-7.639 -17.314,-8.657c-0.51,-0.51 -1.019,-1.528 -1.019,-2.037c0,-1.019 -0.509,-2.547 -0.509,-3.056c-0.51,-1.018 -1.019,-3.055 -1.528,-4.583l-0,-2.037l-0.509,1.528l-0.51,2.037l0,-30.047l0.51,1.528l0.509,2.037l-0,-1.018c0.509,-0 0.509,-1.528 1.018,-3.056c0.51,-6.111 1.528,-7.639 8.149,-14.768c7.129,-7.13 11.203,-9.676 14.768,-9.676c1.019,-0 3.056,-0.51 4.583,-1.019c1.528,-0.509 3.565,-1.018 4.584,-1.018l2.037,-0l-0.509,24.444c-0,24.954 -0,24.954 1.018,29.537c2.037,6.62 4.583,12.732 8.658,21.389c2.037,3.565 3.564,6.62 3.564,6.62l0,0.51l-1.018,-0c-0.509,-0 -4.584,-1.528 -9.167,-3.056Zm136.482,-1.528c-0,-0.509 1.018,-2.546 2.037,-4.583l2.037,-3.565l-0,0.509l-4.074,8.148l-0,-0.509Zm-323.38,-101.852l11.204,0l6.111,0.51l-22.917,-0l5.602,-0.51Zm513.333,0l15.278,0l8.148,0.51l-31.065,-0l7.639,-0.51Zm-516.389,-5.092c-0.509,-1.019 -0.509,-18.843 -0.509,-86.574l0,-86.065l1.019,-0c-0,-0.509 11.713,-0.509 25.463,-0.509c27.5,-0 31.574,0.509 37.176,3.055c8.657,3.565 14.768,14.259 17.314,30.556c0.51,4.583 0.51,8.148 0.51,16.296c-0.51,14.259 -2.547,21.898 -7.639,31.574c-3.056,5.602 -6.111,8.658 -10.185,11.204c-4.584,2.037 -5.093,3.055 -5.093,4.583c0,1.019 0.509,2.037 3.056,3.565c4.074,3.565 5.092,5.093 7.638,10.185c4.075,8.148 5.602,13.75 12.223,37.176c3.564,12.222 6.62,22.917 6.62,23.426c0.509,0.509 0.509,1.528 0,1.528c0,0.509 -5.602,0.509 -13.241,0.509l-13.75,0l-0.509,-2.037c-0.509,-1.528 -4.074,-13.241 -8.148,-26.991c-7.639,-26.481 -9.676,-33.611 -11.204,-36.157c-1.018,-2.546 -5.602,-6.111 -7.639,-7.13c-2.037,-0.509 -7.129,-0.509 -8.148,0c-0.509,0.509 -0.509,9.167 -0.509,36.667l-0,35.648l-11.713,0c-9.676,0 -12.222,0 -12.732,-0.509Zm45.325,-102.361c2.037,-0.51 4.583,-1.528 5.092,-2.037c2.037,-1.528 4.074,-5.093 5.093,-9.167c1.527,-5.093 1.018,-15.787 -0.51,-19.861c-1.527,-3.565 -5.092,-7.13 -8.148,-8.148c-2.037,-0.51 -20.879,-1.019 -21.898,-0.51c-1.018,0.51 -0.509,39.723 0,40.741c0.509,0.509 3.056,0.509 8.658,0.509c7.638,0 8.657,0 11.713,-1.527Zm101.342,99.814c0,-1.527 0.509,-4.074 0.509,-5.601l1.019,-3.056l-0,5.602l0.509,-1.019c0.509,-3.564 32.083,-163.472 32.083,-164.49l0.51,-1.528l27.5,-0l-0,1.528c-0,1.527 31.065,159.907 32.083,165l0.509,1.018l0,-5.602l1.019,3.056c-0,1.528 0.509,4.074 0.509,5.602l0,2.546l-24.954,0l-0.509,-2.037c0,-1.019 -0.509,-6.62 -1.528,-12.731l-1.527,-11.204l-0.51,3.055l-0.509,3.565l0,-4.583c0,-2.546 0,-4.583 -0.509,-5.093c-0.509,-0.509 -5.093,-0.509 -18.334,-0.509c-20.879,-0 -19.351,-0.509 -19.351,6.62l-0,4.584l-0.51,-3.565l0,-3.056l-1.527,8.658c-1.019,5.092 -1.528,10.694 -2.037,12.731l-0,3.565l-24.445,0l0,-3.056Zm59.583,-61.111c0,-0.509 0.51,-2.037 0.51,-4.074c-0,-2.546 -5.093,-37.685 -9.676,-62.129c-0,-2.547 -3.056,-3.565 -4.584,-1.528c-0.509,0.509 -2.546,11.713 -6.111,33.611c-2.546,17.824 -5.092,32.593 -5.092,33.102c-0,2.037 1.018,2.037 12.731,2.037c10.185,-0 11.204,-0 12.222,-1.019Zm95.741,-21.898c0,-47.361 0,-86.574 0.509,-86.574l0,-1.018l25.463,-0c26.991,-0 29.537,-0 35.649,2.546c7.638,2.546 12.731,10.185 15.787,23.426c1.527,5.602 1.527,6.62 2.037,18.842c-0,10.695 -0,13.75 -0.51,17.315c-3.055,15.278 -9.166,26.482 -16.805,30.556c-3.565,2.037 -5.093,3.565 -5.093,4.583c0,0.509 2.037,2.546 4.074,4.583c3.565,3.565 4.584,4.584 6.621,8.149c3.564,8.657 5.092,12.731 11.713,37.176c3.564,13.24 6.62,24.953 7.129,25.463l0,1.018l-26.99,0l-8.149,-29.028c-10.185,-35.139 -10.694,-36.157 -14.259,-39.722c-1.528,-2.037 -3.055,-3.056 -4.583,-3.565c-2.547,-0.509 -6.621,-0.509 -7.639,0c-0.509,0.509 -0.509,10.695 -0.509,36.667l-0,35.648l-24.445,0l0,-86.065Zm45.324,-16.296c4.584,-2.037 7.639,-5.093 9.167,-10.185c1.018,-3.056 1.018,-4.584 1.018,-11.713c-0.509,-7.13 -0.509,-8.148 -1.527,-10.695c-1.528,-3.055 -5.093,-6.62 -7.639,-7.129c-2.547,-0.51 -20.371,-0.51 -21.389,-0c-0.509,0.509 -0.509,5.602 -0.509,20.37c-0,10.695 -0,19.861 0.509,19.861c-0,0.509 4.074,0.509 8.148,0.509c7.639,0 8.657,0 12.222,-1.018Zm100.324,101.852c-0.509,-0.509 -0.509,-20.371 -0.509,-86.574l0,-86.065l1.019,-0.509l28.518,-0c28.519,0.509 28.519,0.509 35.139,3.055c6.62,3.056 12.222,12.222 15.278,25.972c1.018,4.074 1.018,6.621 1.018,17.315c0.51,13.75 0,16.297 -2.546,24.954c-3.056,10.185 -8.657,18.333 -14.769,21.389c-4.074,2.037 -5.092,3.055 -5.092,4.583c-0,1.019 0.509,2.037 2.546,3.056c1.019,1.018 3.056,3.055 4.074,4.074c2.037,2.037 6.111,9.676 8.148,16.296c1.528,3.565 14.769,50.417 14.769,51.945l0.509,1.018l-27.5,0l-0.509,-1.018c-0.509,-0.51 -3.565,-12.223 -7.639,-25.973c-7.13,-24.953 -10.185,-33.611 -11.204,-37.176c-1.527,-3.055 -5.092,-6.62 -7.129,-7.639c-2.547,-1.018 -8.148,-1.527 -9.167,-0.509c-0.509,0.509 -0.509,9.167 -0.509,36.667l-0,35.648l-11.713,0c-8.658,0 -12.222,0 -12.732,-0.509Zm45.324,-102.361c4.584,-1.528 6.112,-2.037 8.149,-5.093c2.037,-3.565 3.055,-8.657 3.055,-16.296c-0.509,-8.658 -1.528,-11.204 -4.583,-14.769c-2.037,-1.528 -3.565,-2.546 -4.584,-3.055c-1.527,-0.51 -6.62,-0.51 -11.713,-0.51c-9.166,0 -9.675,0 -10.185,1.019c-1.018,1.018 -1.018,4.074 -1.018,20.37c-0,13.75 -0,18.843 0.509,19.352c0.509,0.509 3.056,0.509 8.657,0.509c7.639,0 8.658,0 11.713,-1.527Zm-77.916,-83.01c-0,-3.055 -0,-8.657 0.509,-11.713l0.509,-5.092l0,8.657l0.51,9.167l-0.51,-31.065c0,-34.12 0,-36.157 -3.565,-49.907c-2.037,-9.167 -7.129,-25.463 -10.185,-31.065l-1.018,-2.037l-0,-0.509l0.509,-0l2.037,1.527c1.528,0.51 3.565,2.547 4.583,3.565c1.528,1.019 3.056,2.037 3.056,2.037l0.509,0l-1.528,-1.528l-1.018,-1.527l38.194,38.194l-1.527,-1.018l-1.528,-1.528c-0,0.509 4.583,6.62 6.111,8.657c0.509,0 0.509,6.111 0.509,16.297l0,15.787l-1.018,-4.075l-0,4.075c-0,2.037 -0,4.583 -0.51,5.601l0,2.037l-0.509,-1.527l-0.509,-1.019l-0.509,2.037c-0.51,1.019 -1.019,4.074 -2.037,5.602c-1.019,2.037 -1.528,4.074 -1.528,4.583c-0,0.51 -0.509,1.528 -1.528,2.547c-1.019,1.018 -1.528,2.037 -1.528,2.546c0,1.018 -10.185,11.204 -10.694,11.204c-0.509,-0 -1.528,0.509 -2.547,1.527c-1.018,1.019 -2.037,1.528 -3.055,2.037c-0.509,0 -2.546,0.51 -4.074,1.019c-1.019,0.509 -3.056,1.019 -4.074,1.019l-2.037,-0l-0,-6.112Zm-297.408,-1.018c-5.602,-1.019 -8.148,-2.546 -15.277,-9.676c-3.565,-3.565 -7.13,-7.13 -7.639,-7.639c-2.547,-5.602 -3.565,-8.148 -4.074,-11.204c-0.51,-2.037 -1.019,-4.074 -1.019,-5.601c-0.509,-1.019 -1.018,-3.056 -1.528,-4.075l-0.509,-2.037l0,4.584l-0.509,-2.037c-0.509,-1.528 -0.509,-10.695 -0.509,-20.88l-0,-18.333l1.018,0.509l0.509,-0l0,-0.509c0,-0.51 7.13,-7.639 15.787,-16.297l15.278,-15.277l-1.018,1.527l-1.528,1.528c0.509,0 2.037,-1.018 3.565,-2.546c2.037,-1.019 5.092,-3.565 7.129,-4.583c1.528,-1.528 4.584,-4.074 6.111,-5.093c1.528,-1.528 3.056,-2.546 3.565,-2.546l0.509,-0l0,2.546l-0.509,-1.019l0,-1.018l-0.509,-0l-0.509,0.509l-0,0.509c-0,0.51 -1.019,3.565 -2.547,7.13c-6.111,15.278 -9.166,26.991 -11.203,41.25c-0.51,4.074 -0.51,39.722 0.509,62.13l-0,8.657l-1.019,0c-0.509,0 -2.546,-0.509 -4.074,-0.509Zm244.954,-51.945c0,-0.509 -0.509,-2.037 -0.509,-3.564l-0,-3.056l-0.509,1.019l-0,1.527l-1.528,-5.092c-4.584,-21.389 -13.75,-63.658 -14.26,-66.713c0,-2.037 -1.018,-6.621 -1.527,-9.676c-0.51,-3.056 -1.019,-5.602 -1.019,-6.111l0.509,-0l5.602,2.037c2.547,1.018 5.602,2.037 5.602,2.037c2.037,-0 18.843,8.148 20.88,9.676c0.509,1.018 2.546,2.037 4.074,2.546c1.018,1.019 3.055,2.037 4.074,3.056l1.528,1.018l0.509,0l-0,-0.509l-3.056,-3.056l1.528,1.019c1.528,0.509 2.037,1.528 2.546,3.055c0.51,2.547 1.019,32.084 0,35.139l0,1.528l-0.509,-0.509l-0.509,-1.019l-1.528,4.584c-1.528,4.074 -5.602,12.731 -8.148,16.296l-0.509,1.528l1.528,-2.037l2.037,-2.037l-0.51,1.018c0,0.509 -3.564,4.074 -7.639,8.148l-7.638,7.13l-0.51,-1.019l-0.509,-0.509l0,1.528l1.019,0.509c0.509,0 2.037,-1.528 5.601,-4.583l5.093,-4.583l-5.093,5.092c-3.055,2.546 -5.601,5.093 -5.601,5.093c-0,-0 -0.51,-0.51 -1.019,-0.51Zm-121.713,-1.527l0.509,-0l-5.092,-5.093c-3.056,-3.565 -6.621,-7.639 -8.658,-10.694c-2.037,-3.056 -3.564,-5.602 -4.074,-5.602l-0.509,-0.509l0,-0.51c0.509,0 -0.509,-2.546 -2.037,-5.602l-2.546,-4.583l-1.019,0l0.509,-0.509c0,-0.509 -0.509,-2.546 -1.527,-4.584c-3.056,-7.638 -8.149,-24.444 -8.149,-27.5l0,-1.527l-1.018,3.055l-0,-2.546c-0.509,-1.528 -0.509,-9.167 -0.509,-16.806l-0,-14.259l1.018,-0.509c0.509,-0 5.093,-1.019 9.676,-2.037c4.583,-1.019 9.167,-1.528 9.676,-2.037l1.019,-0l-1.019,-1.019l4.583,-0.509c3.056,0 9.676,-0.509 14.769,-0.509l10.185,-0l0,-1.019l0.509,0.51c0,-0 0.51,1.527 0.51,2.546c0.509,1.018 1.018,4.583 1.527,7.129l1.019,4.584l1.018,-3.056l0,2.037c0.51,1.528 0.51,9.676 0.51,18.334l-0,16.296l-0.51,-1.528l0,-1.528l-1.527,5.602c-2.547,10.695 -5.093,17.824 -14.26,42.778c-1.018,3.565 -2.546,7.639 -2.546,8.657l0,2.547l-1.018,0.509l-1.019,-0l0,-0.509Zm55.509,-1.528c-0.509,-0.509 -0.509,-1.528 -1.018,-2.546c-0.509,-2.547 -4.074,-12.223 -4.584,-12.732c-0.509,0 -0.509,-1.528 -1.018,-2.546c-0,-1.528 -1.528,-5.602 -3.056,-9.167c-2.546,-7.129 -6.111,-18.333 -6.62,-21.898l-0.509,-2.037l-0.509,1.018l-0.51,1.528l-0.509,-4.583c-1.019,-6.111 -1.528,-30.556 -0.509,-37.176l0.509,-3.565l1.019,3.056l-0,-7.639l1.018,3.055l0.509,-3.564l1.019,-3.056l7.639,0c7.129,0 17.315,1.528 24.444,3.056l2.037,0.509l-3.055,-0l4.074,1.018c2.037,0.51 6.111,1.528 8.657,2.547c2.546,1.018 5.093,1.527 5.602,1.527l1.018,0.51l0,12.731c0,9.167 0,14.769 -1.018,18.334l-0.509,5.601l-0.51,-1.018l-0.509,-0.509l-0.509,2.037c-0,1.018 -0.509,2.037 -0.509,2.546c-0,-0 -1.019,3.055 -2.037,6.62c-1.019,3.056 -2.037,6.621 -2.037,7.13l-0,1.018l-0.51,0l0,-0.509l-1.018,2.037c-0.509,1.528 -1.019,3.056 -1.019,3.565c0,1.528 -4.074,9.167 -5.602,10.694l-1.018,1.528l0.509,0l-2.546,3.565c-1.528,2.037 -2.546,4.074 -2.546,4.074l-0,0.509l1.527,-1.018l1.019,-1.019c-0,1.019 -15.278,16.297 -15.787,16.297l-0.509,-0l-0.51,-1.528Zm-129.861,-7.13c-3.565,-4.074 -7.129,-8.148 -7.639,-8.657l-0.509,-1.019l3.565,3.565l-3.565,-6.62c-1.528,-3.565 -4.074,-8.148 -5.093,-10.695l-1.527,-4.074l-0,2.547l-0.51,-1.528c-0.509,-1.019 -1.018,-6.621 -1.018,-15.787c-0,-13.241 -0,-15.787 1.018,-19.352l0.51,-4.074l1.018,3.055l0,-2.546c0.509,-1.528 1.019,-3.055 1.528,-3.055c1.019,-1.019 14.769,-7.639 17.824,-8.658c1.019,-0.509 4.074,-1.528 6.62,-2.546c9.676,-3.565 14.26,-5.093 15.278,-5.093l1.019,0l-0,2.037c-0.51,1.528 -1.019,3.565 -1.019,5.602c-2.546,10.185 -3.055,12.732 -3.055,15.787l-0,3.056l-0.51,-1.528l-0.509,-1.019l0,7.13l-1.018,-3.056l-0,7.639l-0.51,-1.527l-0.509,-1.019l0,1.528c-0.509,1.018 -0.509,2.546 -0.509,3.565c-0,1.527 -1.019,7.639 -2.546,14.768l-2.547,12.222l-1.018,-2.037l-2.547,13.241c-2.037,7.13 -3.564,13.75 -3.564,14.259l-0.51,1.019l-0.509,-0c0,-0 -3.565,-3.056 -7.639,-7.13Z" style="fill:#289486;fill-rule:nonzero;"/><path d="M266.343,508.241l-0,-1.019l-9.676,0c-6.111,0 -11.713,-0.509 -15.787,-1.018l-6.111,-0.51l1.527,-0.509l2.037,-0.509l-3.055,-0c-1.528,-0.509 -3.565,-1.019 -4.074,-1.019l-1.019,-0.509l0,-23.426l1.019,3.056l-0,-1.528c-0,-0.509 0.509,-2.546 1.018,-4.074c0.509,-1.528 1.019,-4.583 2.037,-6.62c0.51,-2.547 1.019,-5.602 1.528,-6.621c1.019,-4.583 5.602,-13.241 8.148,-15.787c1.019,-1.018 1.528,-2.037 1.528,-2.546c-0,-1.019 8.657,-9.676 9.676,-9.676l1.018,-0l0,1.528c0,1.527 0.51,2.546 5.093,15.787c3.056,9.166 7.13,21.389 7.13,22.916l-0,1.528l0.509,-2.037l0.509,-1.528l0,28.519l-1.018,-2.037l-0,0.509c-0.51,0.509 -0.51,2.546 -1.019,4.074c0,1.528 -0.509,2.546 -0.509,3.056l-0.509,-0Zm16.805,-0.51c-0.509,0 -0.509,-1.018 -0.509,-2.037c-0,-1.018 -0.509,-3.055 -0.509,-4.583l-0.51,-2.037l-1.018,3.056l-0,-28.519l1.018,4.074l0,-2.037c0.51,-3.055 3.565,-11.713 8.149,-24.954c2.037,-6.62 4.074,-12.731 4.074,-13.75l-0,-1.527l1.018,-0c1.019,-0 9.676,8.657 9.676,9.676c0,0.509 0.509,1.527 1.528,2.546c2.546,2.546 7.129,11.204 8.148,15.278c1.018,3.564 1.528,6.62 2.546,10.694c0.51,1.528 1.528,5.093 2.037,7.13l0.51,3.565l0.509,-1.019l0.509,-0.509l0,20.37l-3.055,1.019c-2.038,-0 -4.075,0.509 -5.093,1.018l-2.037,0l1.018,0.509l1.528,0.51l-6.111,0.509c-3.055,0.509 -9.676,0.509 -14.768,0.509l-8.658,0l0.509,0.509l0,0.51c0,-0 -0.509,-0 -0.509,-0.51Zm51.945,-8.657c-0,0 2.037,-4.074 4.074,-8.657c4.583,-9.167 8.148,-18.334 9.166,-24.954c0.51,-3.565 0.51,-28.009 -0.509,-43.796l0,-6.111l2.546,-0c1.528,-0 4.074,0.509 6.111,1.527c1.528,0.51 3.565,1.019 4.584,1.019c3.055,-0 6.62,2.546 12.731,9.167c7.13,7.129 7.639,8.148 9.167,15.787l0.509,3.055l0.509,-2.037l0.51,-1.528l-0,30.047l-1.019,-3.056l0,1.528c0,0.509 -1.018,3.565 -1.528,6.111c-1.527,5.093 -1.527,5.093 -7.129,7.639c-12.222,6.111 -34.63,14.259 -38.704,14.259l-1.018,0Zm-134.445,-4.074c-4.583,-1.528 -9.167,-3.056 -10.185,-3.565c-1.528,-0.509 -2.546,-1.018 -3.565,-1.018c-0.509,-0 -2.037,-0.51 -3.565,-1.019c-4.583,-1.528 -16.296,-7.639 -17.314,-8.657c-0.51,-0.51 -1.019,-1.528 -1.019,-2.037c0,-1.019 -0.509,-2.547 -0.509,-3.056c-0.51,-1.018 -1.019,-3.055 -1.528,-4.583l-0,-2.037l-0.509,1.528l-0.51,2.037l0,-30.047l0.51,1.528l0.509,2.037l-0,-1.018c0.509,-0 0.509,-1.528 1.018,-3.056c0.51,-6.111 1.528,-7.639 8.149,-14.768c7.129,-7.13 11.203,-9.676 14.768,-9.676c1.019,-0 3.056,-0.51 4.583,-1.019c1.528,-0.509 3.565,-1.018 4.584,-1.018l2.037,-0l-0.509,24.444c-0,24.954 -0,24.954 1.018,29.537c2.037,6.62 4.583,12.732 8.658,21.389c2.037,3.565 3.564,6.62 3.564,6.62l0,0.51l-1.018,-0c-0.509,-0 -4.584,-1.528 -9.167,-3.056Zm-186.898,-103.38l11.204,0l6.111,0.51l-22.917,-0l5.602,-0.51Zm513.333,0l15.278,0l8.148,0.51l-31.065,-0l7.639,-0.51Zm-101.342,-190.463c-0,-3.055 -0,-8.657 0.509,-11.713l0.509,-5.092l0,8.657l0.51,9.167l-0.51,-31.065c0,-34.12 0,-36.157 -3.565,-49.907c-2.037,-9.167 -7.129,-25.463 -10.185,-31.065l-1.018,-2.037l-0,-0.509l0.509,-0l2.037,1.527c1.528,0.51 3.565,2.547 4.583,3.565c1.528,1.019 3.056,2.037 3.056,2.037l0.509,0l-1.528,-1.528l-1.018,-1.527l38.194,38.194l-1.527,-1.018l-1.528,-1.528c-0,0.509 4.583,6.62 6.111,8.657c0.509,0 0.509,6.111 0.509,16.297l0,15.787l-1.018,-4.075l-0,4.075c-0,2.037 -0,4.583 -0.51,5.601l0,2.037l-0.509,-1.527l-0.509,-1.019l-0.509,2.037c-0.51,1.019 -1.019,4.074 -2.037,5.602c-1.019,2.037 -1.528,4.074 -1.528,4.583c-0,0.51 -0.509,1.528 -1.528,2.547c-1.019,1.018 -1.528,2.037 -1.528,2.546c0,1.018 -10.185,11.204 -10.694,11.204c-0.509,-0 -1.528,0.509 -2.547,1.527c-1.018,1.019 -2.037,1.528 -3.055,2.037c-0.509,0 -2.546,0.51 -4.074,1.019c-1.019,0.509 -3.056,1.019 -4.074,1.019l-2.037,-0l-0,-6.112Zm-297.408,-1.018c-5.602,-1.019 -8.148,-2.546 -15.277,-9.676c-3.565,-3.565 -7.13,-7.13 -7.639,-7.639c-2.547,-5.602 -3.565,-8.148 -4.074,-11.204c-0.51,-2.037 -1.019,-4.074 -1.019,-5.601c-0.509,-1.019 -1.018,-3.056 -1.528,-4.075l-0.509,-2.037l0,4.584l-0.509,-2.037c-0.509,-1.528 -0.509,-10.695 -0.509,-20.88l-0,-18.333l1.018,0.509l0.509,-0l0,-0.509c0,-0.51 7.13,-7.639 15.787,-16.297l15.278,-15.277l-1.018,1.527l-1.528,1.528c0.509,0 2.037,-1.018 3.565,-2.546c2.037,-1.019 5.092,-3.565 7.129,-4.583c1.528,-1.528 4.584,-4.074 6.111,-5.093c1.528,-1.528 3.056,-2.546 3.565,-2.546l0.509,-0l0,2.546l-0.509,-1.019l0,-1.018l-0.509,-0l-0.509,0.509l-0,0.509c-0,0.51 -1.019,3.565 -2.547,7.13c-6.111,15.278 -9.166,26.991 -11.203,41.25c-0.51,4.074 -0.51,39.722 0.509,62.13l-0,8.657l-1.019,0c-0.509,0 -2.546,-0.509 -4.074,-0.509Zm244.954,-51.945c0,-0.509 -0.509,-2.037 -0.509,-3.564l-0,-3.056l-0.509,1.019l-0,1.527l-1.528,-5.092c-4.584,-21.389 -13.75,-63.658 -14.26,-66.713c0,-2.037 -1.018,-6.621 -1.527,-9.676c-0.51,-3.056 -1.019,-5.602 -1.019,-6.111l0.509,-0l5.602,2.037c2.547,1.018 5.602,2.037 5.602,2.037c2.037,-0 18.843,8.148 20.88,9.676c0.509,1.018 2.546,2.037 4.074,2.546c1.018,1.019 3.055,2.037 4.074,3.056l1.528,1.018l0.509,0l-0,-0.509l-3.056,-3.056l1.528,1.019c1.528,0.509 2.037,1.528 2.546,3.055c0.51,2.547 1.019,32.084 0,35.139l0,1.528l-0.509,-0.509l-0.509,-1.019l-1.528,4.584c-1.528,4.074 -5.602,12.731 -8.148,16.296l-0.509,1.528l1.528,-2.037l2.037,-2.037l-0.51,1.018c0,0.509 -3.564,4.074 -7.639,8.148l-7.638,7.13l-0.51,-1.019l-0.509,-0.509l0,1.528l1.019,0.509c0.509,0 2.037,-1.528 5.601,-4.583l5.093,-4.583l-5.093,5.092c-3.055,2.546 -5.601,5.093 -5.601,5.093c-0,-0 -0.51,-0.51 -1.019,-0.51Zm-121.713,-1.527l0.509,-0l-5.092,-5.093c-3.056,-3.565 -6.621,-7.639 -8.658,-10.694c-2.037,-3.056 -3.564,-5.602 -4.074,-5.602l-0.509,-0.509l0,-0.51c0.509,0 -0.509,-2.546 -2.037,-5.602l-2.546,-4.583l-1.019,0l0.509,-0.509c0,-0.509 -0.509,-2.546 -1.527,-4.584c-3.056,-7.638 -8.149,-24.444 -8.149,-27.5l0,-1.527l-1.018,3.055l-0,-2.546c-0.509,-1.528 -0.509,-9.167 -0.509,-16.806l-0,-14.259l1.018,-0.509c0.509,-0 5.093,-1.019 9.676,-2.037c4.583,-1.019 9.167,-1.528 9.676,-2.037l1.019,-0l-1.019,-1.019l4.583,-0.509c3.056,0 9.676,-0.509 14.769,-0.509l10.185,-0l0,-1.019l0.509,0.51c0,-0 0.51,1.527 0.51,2.546c0.509,1.018 1.018,4.583 1.527,7.129l1.019,4.584l1.018,-3.056l0,2.037c0.51,1.528 0.51,9.676 0.51,18.334l-0,16.296l-0.51,-1.528l0,-1.528l-1.527,5.602c-2.547,10.695 -5.093,17.824 -14.26,42.778c-1.018,3.565 -2.546,7.639 -2.546,8.657l0,2.547l-1.018,0.509l-1.019,-0l0,-0.509Zm55.509,-1.528c-0.509,-0.509 -0.509,-1.528 -1.018,-2.546c-0.509,-2.037 -4.074,-12.223 -4.584,-12.732c0,0 -0.509,-1.018 -0.509,-2.037c-0.509,-0.509 -2.037,-5.602 -4.074,-10.694c-1.528,-5.602 -3.565,-12.223 -4.583,-15.278c-1.019,-3.056 -2.037,-6.111 -2.037,-6.621l-0.509,-1.018l-0,2.546l-1.019,-2.546c-0.509,-3.056 -1.019,-37.176 0,-40.741l0,-2.037l1.019,3.056l-0,-7.639l1.018,3.055l0.509,-3.564l1.019,-3.056l7.639,0c7.129,0 17.315,1.528 24.444,3.056l2.037,0.509l-3.055,-0l4.074,1.018c2.037,0.51 6.111,1.528 8.657,2.547c2.546,1.018 5.093,1.527 5.602,1.527l1.018,0.51l0,12.731c0,9.167 0,14.769 -1.018,18.334l-0.509,5.601l-0.51,-1.018l-0.509,-0.509l-0.509,2.037c-0,1.018 -0.509,2.037 -0.509,2.546c-0,-0 -1.019,3.055 -2.037,6.62c-1.019,3.056 -2.037,6.621 -2.037,7.13l-0,1.018l-0.51,0l0,-0.509l-1.018,2.037c-0.509,1.528 -1.019,3.056 -1.019,3.565c0,1.528 -4.074,9.167 -5.602,10.694l-1.018,1.528l0.509,0l-2.546,3.565c-1.528,2.037 -2.546,4.074 -2.546,4.074l-0,0.509l1.527,-1.018l1.019,-1.019c-0,1.019 -15.278,16.297 -15.787,16.297l-0.509,-0l-0.51,-1.528Zm-129.861,-7.13c-3.565,-4.074 -7.129,-8.148 -7.639,-8.657l-0.509,-1.019l3.565,3.565l-3.565,-6.62c-1.528,-3.565 -4.074,-8.148 -5.093,-10.695l-1.527,-4.074l-0,2.547l-0.51,-1.528c-0.509,-1.019 -1.018,-6.621 -1.018,-15.787c-0,-13.241 -0,-15.787 1.018,-19.352l0.51,-4.074l1.018,3.055l0,-2.546c0.509,-1.528 1.019,-3.055 1.528,-3.055c1.019,-1.019 14.769,-7.639 17.824,-8.658c1.019,-0.509 4.074,-1.528 6.62,-2.546c9.676,-3.565 14.26,-5.093 15.278,-5.093l1.019,0l-0,2.037c-0.51,1.528 -1.019,3.565 -1.019,5.602c-2.546,10.185 -3.055,12.732 -3.055,15.787l-0,3.056l-0.51,-1.528l-0.509,-1.019l0,7.13l-1.018,-3.056l-0,7.639l-0.51,-1.527l-0.509,-1.019l0,1.528c-0.509,1.018 -0.509,2.546 -0.509,3.565c-0,1.527 -1.019,7.639 -2.546,14.768l-2.547,12.222l-1.018,-2.037l-2.547,13.241c-2.037,7.13 -3.564,13.75 -3.564,14.259l-0.51,1.019l-0.509,-0c0,-0 -3.565,-3.056 -7.639,-7.13Z" style="fill:#0ff;fill-rule:nonzero;"/><path d="M266.343,508.241l-0,-1.019l-9.676,0c-6.111,0 -11.713,-0.509 -15.787,-1.018l-6.111,-0.51l1.527,-0.509l2.037,-0.509l-3.055,-0c-1.528,-0.509 -3.565,-1.019 -4.074,-1.019l-1.019,-0.509l0,-23.426l1.019,3.056l-0,-1.528c-0,-0.509 0.509,-2.546 1.018,-4.074c0.509,-1.528 1.019,-4.583 2.037,-6.62c0.51,-2.547 1.019,-5.602 1.528,-6.621c1.019,-4.583 5.602,-13.241 8.148,-15.787c1.019,-1.018 1.528,-2.037 1.528,-2.546c-0,-1.019 8.657,-9.676 9.676,-9.676l1.018,-0l0,1.528c0,1.527 0.51,2.546 5.093,15.787c3.056,9.166 7.13,21.389 7.13,22.916l-0,1.528l0.509,-2.037l0.509,-1.528l0,28.519l-1.018,-2.037l-0,0.509c-0.51,0.509 -0.51,2.546 -1.019,4.074c0,1.528 -0.509,2.546 -0.509,3.056l-0.509,-0Zm16.805,-0.51c-0.509,0 -0.509,-1.018 -0.509,-2.037c-0,-1.018 -0.509,-3.055 -0.509,-4.583l-0.51,-2.037l-1.018,3.056l-0,-28.519l1.018,4.074l0,-2.037c0.51,-3.055 3.565,-11.713 8.149,-24.954c2.037,-6.62 4.074,-12.731 4.074,-13.75l-0,-1.527l1.018,-0c1.019,-0 9.676,8.657 9.676,9.676c0,0.509 0.509,1.527 1.528,2.546c2.546,2.546 7.129,11.204 8.148,15.278c1.018,3.564 1.528,6.62 2.546,10.694c0.51,1.528 1.528,5.093 2.037,7.13l0.51,3.565l0.509,-1.019l0.509,-0.509l0,20.37l-3.055,1.019c-2.038,-0 -4.075,0.509 -5.093,1.018l-2.037,0l1.018,0.509l1.528,0.51l-6.111,0.509c-3.055,0.509 -9.676,0.509 -14.768,0.509l-8.658,0l0.509,0.509l0,0.51c0,-0 -0.509,-0 -0.509,-0.51Zm51.945,-8.657c-0,0 2.037,-4.074 4.074,-8.657c4.583,-9.167 8.148,-18.334 9.166,-24.954c0.51,-3.565 0.51,-28.009 -0.509,-43.796l0,-6.111l2.546,-0c1.528,-0 4.074,0.509 6.111,1.527c1.528,0.51 3.565,1.019 4.584,1.019c3.055,-0 6.62,2.546 12.731,9.167c7.13,7.129 7.639,8.148 9.167,15.787l0.509,3.055l0.509,-2.037l0.51,-1.528l-0,30.047l-1.019,-3.056l0,1.528c0,0.509 -1.018,3.565 -1.528,6.111c-1.527,5.093 -1.527,5.093 -7.129,7.639c-12.222,6.111 -34.63,14.259 -38.704,14.259l-1.018,0Zm-134.445,-4.074c-4.583,-1.528 -9.167,-3.056 -10.185,-3.565c-1.528,-0.509 -2.546,-1.018 -3.565,-1.018c-0.509,-0 -2.037,-0.51 -3.565,-1.019c-4.583,-1.528 -16.296,-7.639 -17.314,-8.657c-0.51,-0.51 -1.019,-1.528 -1.019,-2.037c0,-1.019 -0.509,-2.547 -0.509,-3.056c-0.51,-1.018 -1.019,-3.055 -1.528,-4.583l-0,-2.037l-0.509,1.528l-0.51,2.037l0,-30.047l0.51,1.528l0.509,2.037l-0,-1.018c0.509,-0 0.509,-1.528 1.018,-3.056c0.51,-6.111 1.528,-7.639 8.149,-14.768c7.129,-7.13 11.203,-9.676 14.768,-9.676c1.019,-0 3.056,-0.51 4.583,-1.019c1.528,-0.509 3.565,-1.018 4.584,-1.018l2.037,-0l-0.509,24.444c-0,24.954 -0,24.954 1.018,29.537c2.037,6.62 4.583,12.732 8.658,21.389c2.037,3.565 3.564,6.62 3.564,6.62l0,0.51l-1.018,-0c-0.509,-0 -4.584,-1.528 -9.167,-3.056Zm-186.898,-103.38l11.204,0l6.111,0.51l-22.917,-0l5.602,-0.51Zm513.333,0l15.278,0l8.148,0.51l-31.065,-0l7.639,-0.51Zm-101.342,-190.463c-0,-3.055 -0,-8.657 0.509,-11.713l0.509,-5.092l0,8.657l0.51,9.167l-0.51,-31.065c0,-34.12 0,-36.157 -3.565,-49.907c-2.037,-9.167 -7.129,-25.463 -10.185,-31.065l-1.018,-2.037l-0,-0.509l0.509,-0l2.037,1.527c1.528,0.51 3.565,2.547 4.583,3.565c1.528,1.019 3.056,2.037 3.056,2.037l0.509,0l-1.528,-1.528l-1.018,-1.527l38.194,38.194l-1.527,-1.018l-1.528,-1.528c-0,0.509 4.583,6.62 6.111,8.657c0.509,0 0.509,6.111 0.509,16.297l0,15.787l-1.018,-4.075l-0,4.075c-0,2.037 -0,4.583 -0.51,5.601l0,2.037l-0.509,-1.527l-0.509,-1.019l-0.509,2.037c-0.51,1.019 -1.019,4.074 -2.037,5.602c-1.019,2.037 -1.528,4.074 -1.528,4.583c-0,0.51 -0.509,1.528 -1.528,2.547c-1.019,1.018 -1.528,2.037 -1.528,2.546c0,1.018 -10.185,11.204 -10.694,11.204c-0.509,-0 -1.528,0.509 -2.547,1.527c-1.018,1.019 -2.037,1.528 -3.055,2.037c-0.509,0 -2.546,0.51 -4.074,1.019c-1.019,0.509 -3.056,1.019 -4.074,1.019l-2.037,-0l-0,-6.112Zm-297.408,-1.018c-5.602,-1.019 -8.148,-2.546 -15.277,-9.676c-3.565,-3.565 -7.13,-7.13 -7.639,-7.639c-2.547,-5.602 -3.565,-8.148 -4.074,-11.204c-0.51,-2.037 -1.019,-4.074 -1.019,-5.601c-0.509,-1.019 -1.018,-3.056 -1.528,-4.075l-0.509,-2.037l0,4.584l-0.509,-2.037c-0.509,-1.528 -0.509,-10.695 -0.509,-20.88l-0,-18.333l1.018,0.509l0.509,-0l0,-0.509c0,-0.51 7.13,-7.639 15.787,-16.297l15.278,-15.277l-1.018,1.527l-1.528,1.528c0.509,0 2.037,-1.018 3.565,-2.546c2.037,-1.019 5.092,-3.565 7.129,-4.583c1.528,-1.528 4.584,-4.074 6.111,-5.093c1.528,-1.528 3.056,-2.546 3.565,-2.546l0.509,-0l0,2.546l-0.509,-1.019l0,-1.018l-0.509,-0l-0.509,0.509l-0,0.509c-0,0.51 -1.019,3.565 -2.547,7.13c-6.111,15.278 -9.166,26.991 -11.203,41.25c-0.51,4.074 -0.51,39.722 0.509,62.13l-0,8.657l-1.019,0c-0.509,0 -2.546,-0.509 -4.074,-0.509Zm244.954,-51.945c0,-0.509 -0.509,-2.037 -0.509,-3.564l-0,-3.056l-0.509,1.019l-0,1.527l-1.528,-5.092c-4.584,-21.389 -13.75,-63.658 -14.26,-66.713c0,-2.037 -1.018,-6.621 -1.527,-9.676c-0.51,-3.056 -1.019,-5.602 -1.019,-6.111l0.509,-0l5.602,2.037c2.547,1.018 5.602,2.037 5.602,2.037c2.037,-0 18.843,8.148 20.88,9.676c0.509,1.018 2.546,2.037 4.074,2.546c1.018,1.019 3.055,2.037 4.074,3.056l1.528,1.018l0.509,0l-0,-0.509l-3.056,-3.056l1.528,1.019c1.528,0.509 2.037,1.528 2.546,3.055c0.51,2.547 1.019,32.084 0,35.139l0,1.528l-0.509,-0.509l-0.509,-1.019l-1.528,4.584c-1.528,4.074 -5.602,12.731 -8.148,16.296l-0.509,1.528l1.528,-2.037l2.037,-2.037l-0.51,1.018c0,0.509 -3.564,4.074 -7.639,8.148l-7.638,7.13l-0.51,-1.019l-0.509,-0.509l0,1.528l1.019,0.509c0.509,0 2.037,-1.528 5.601,-4.583l5.093,-4.583l-5.093,5.092c-3.055,2.546 -5.601,5.093 -5.601,5.093c-0,-0 -0.51,-0.51 -1.019,-0.51Zm-121.713,-1.527l0.509,-0l-5.092,-5.093c-3.056,-3.565 -6.621,-7.639 -8.658,-10.694c-2.037,-3.056 -3.564,-5.602 -4.074,-5.602l-0.509,-0.509l0,-0.51c0.509,0 -0.509,-2.546 -2.037,-5.602l-2.546,-4.583l-1.019,0l0.509,-0.509c0,-0.509 -0.509,-2.546 -1.527,-4.584c-3.056,-7.638 -8.149,-24.444 -8.149,-27.5l0,-1.527l-1.018,3.055l-0,-2.546c-0.509,-1.528 -0.509,-9.167 -0.509,-16.806l-0,-14.259l1.018,-0.509c0.509,-0 5.093,-1.019 9.676,-2.037c4.583,-1.019 9.167,-1.528 9.676,-2.037l1.019,-0l-1.019,-1.019l4.583,-0.509c3.056,0 9.676,-0.509 14.769,-0.509l10.185,-0l0,-1.019l0.509,0.51c0,-0 0.51,1.527 0.51,2.546c0.509,1.018 1.018,4.583 1.527,7.129l1.019,4.584l1.018,-3.056l0,2.037c0.51,1.528 0.51,9.676 0.51,18.334l-0,16.296l-0.51,-1.528l0,-1.528l-1.527,5.602c-2.547,10.695 -5.093,17.824 -14.26,42.778c-1.018,3.565 -2.546,7.639 -2.546,8.657l0,2.547l-1.018,0.509l-1.019,-0l0,-0.509Zm55.509,-1.528c-0.509,-0.509 -0.509,-1.528 -1.018,-2.546c-0.509,-2.037 -4.074,-12.223 -4.584,-12.732c0,0 -0.509,-1.018 -0.509,-2.037c-0.509,-0.509 -2.037,-5.602 -4.074,-10.694c-1.528,-5.602 -3.565,-12.223 -4.583,-15.278c-1.019,-3.056 -2.037,-6.111 -2.037,-6.621l-0.509,-1.018l-0,2.546l-1.019,-2.546c-0.509,-3.056 -1.019,-37.176 0,-40.741l0,-2.037l1.019,3.056l-0,-7.639l1.018,3.055l0.509,-3.564l1.019,-3.056l7.639,0c7.129,0 17.315,1.528 24.444,3.056l2.037,0.509l-3.055,-0l4.074,1.018c2.037,0.51 6.111,1.528 8.657,2.547c2.546,1.018 5.093,1.527 5.602,1.527l1.018,0.51l0,12.731c0,9.167 0,14.769 -1.018,18.334l-0.509,5.601l-0.51,-1.018l-0.509,-0.509l-0.509,2.037c-0,1.018 -0.509,2.037 -0.509,2.546c-0,-0 -1.019,3.055 -2.037,6.62c-1.019,3.056 -2.037,6.621 -2.037,7.13l-0,1.018l-0.51,0l0,-0.509l-1.018,2.037c-0.509,1.528 -1.019,3.056 -1.019,3.565c0,1.528 -4.074,9.167 -5.602,10.694l-1.018,1.528l0.509,0l-2.546,3.565c-1.528,2.037 -2.546,4.074 -2.546,4.074l-0,0.509l1.527,-1.018l1.019,-1.019c-0,1.019 -15.278,16.297 -15.787,16.297l-0.509,-0l-0.51,-1.528Zm-129.861,-7.13c-3.565,-4.074 -7.129,-8.148 -7.639,-8.657l-0.509,-1.019l3.565,3.565l-3.565,-6.62c-1.528,-3.565 -4.074,-8.148 -5.093,-10.695l-1.527,-4.074l-0,2.547l-0.51,-1.528c-0.509,-1.019 -1.018,-6.621 -1.018,-15.787c-0,-13.241 -0,-15.787 1.018,-19.352l0.51,-4.074l1.018,3.055l0,-2.546c0.509,-1.528 1.019,-3.055 1.528,-3.055c1.019,-1.019 14.769,-7.639 17.824,-8.658c1.019,-0.509 4.074,-1.528 6.62,-2.546c9.676,-3.565 14.26,-5.093 15.278,-5.093l1.019,0l-0,2.037c-0.51,1.528 -1.019,3.565 -1.019,5.602c-2.546,10.185 -3.055,12.732 -3.055,15.787l-0,3.056l-0.51,-1.528l-0.509,-1.019l0,7.13l-1.018,-3.056l-0,7.639l-0.51,-1.527l-0.509,-1.019l0,1.528c-0.509,1.018 -0.509,2.546 -0.509,3.565c-0,1.527 -1.019,7.639 -2.546,14.768l-2.547,12.222l-1.018,-2.037l-2.547,13.241c-2.037,7.13 -3.564,13.75 -3.564,14.259l-0.51,1.019l-0.509,-0c0,-0 -3.565,-3.056 -7.639,-7.13Z" style="fill:#bfbfc0;fill-rule:nonzero;"/><path d="M240.37,506.204l-5.601,-0.51l1.527,-0.509l2.037,-0.509l-3.055,-0c-1.528,-0.509 -3.565,-1.019 -4.074,-1.019l-1.019,-0.509l0,-23.426l1.019,3.056l-0,-2.037c1.018,-7.13 6.62,-21.898 11.713,-30.047c1.018,-2.037 2.037,-4.074 2.546,-5.092c0.509,-1.019 3.056,-3.565 5.093,-6.111l4.074,-3.565l0.509,0.509c-0,0 1.018,2.546 2.037,5.093c0.509,2.037 2.546,7.639 4.074,11.713c1.528,4.074 3.565,10.694 5.093,14.768c2.037,7.639 2.037,7.639 2.037,20.371c-0,12.222 -0,15.277 -1.528,17.824c-0.509,1.018 -1.019,1.018 -10.695,1.018c-6.62,0 -12.731,-0.509 -15.787,-1.018Zm42.269,-2.037c-0,-1.528 -1.019,-3.565 -1.019,-4.074c-0.509,-2.037 -0.509,-21.389 0,-24.445c1.019,-4.074 3.565,-12.222 7.639,-24.444c2.547,-7.13 4.584,-13.241 5.093,-13.75c-0,-1.019 0.509,-2.037 1.018,-2.037c0.51,-0 8.149,8.148 10.186,11.713c7.638,13.75 10.185,21.389 13.24,34.12c1.019,3.565 1.019,6.111 1.019,13.241l-0,8.657l-3.056,1.019c-1.528,-0 -3.565,0.509 -4.583,1.018l-2.037,0l1.018,0.509l1.528,0.51l-5.092,0.509c-3.056,-0 -9.167,0.509 -14.26,0.509l-9.676,0l-1.018,-3.055Zm55,-7.13l-0.509,-0.509l3.564,-7.13c4.075,-8.657 6.112,-14.259 8.149,-21.898c1.527,-5.602 1.527,-6.111 2.037,-19.861c-0,-12.732 -0.51,-20.37 -2.037,-29.028l-0,-2.037l1.018,0c2.546,0 9.676,2.037 14.259,4.583c9.167,4.074 14.769,11.204 17.824,22.408c1.019,3.055 1.019,5.092 1.019,13.241c-0,9.166 -0.509,14.259 -2.546,21.388c-1.019,3.565 -1.019,3.565 -7.13,6.621c-7.639,3.565 -18.333,7.639 -26.991,10.694c-7.129,2.037 -7.639,2.547 -8.657,1.528Zm-135.972,-2.546c-9.167,-2.547 -20.371,-7.639 -28.01,-11.204c-7.129,-3.565 -7.129,-3.565 -8.148,-6.111c-1.528,-6.111 -2.037,-11.713 -2.037,-20.37c0,-8.149 0,-9.676 1.019,-13.241c3.055,-11.204 8.657,-18.334 17.824,-22.917c4.583,-2.037 11.713,-4.074 14.259,-4.074l1.019,0l-0,0.509c-0,0 -0.51,2.547 -1.019,5.093c-0.509,3.055 -0.509,8.657 -1.018,20.37c-0,14.26 -0,15.787 1.018,20.88c1.528,7.639 4.583,16.296 8.657,24.444c2.547,6.111 3.056,7.13 2.547,7.639c-1.019,1.019 -0.509,1.528 -6.111,-1.018Zm225.092,-289.769c0,-0.509 0.51,-4.074 1.019,-8.148c1.018,-11.204 1.018,-51.435 -0,-59.074c-2.037,-10.185 -4.584,-20.88 -8.148,-31.574l-3.565,-10.695l2.037,-2.037l2.037,1.528c8.148,5.602 33.102,31.065 39.213,40.232c0.509,0.509 1.018,2.037 1.018,3.565l0,2.546l1.019,-5.093l-0,28.519l-1.019,-7.13l0,2.546c0,3.056 -1.527,11.713 -3.055,16.297c-3.565,11.713 -10.185,20.879 -18.843,25.972c-3.565,2.037 -9.166,4.074 -10.694,4.074l-1.019,-0l0,-1.528Zm-299.444,-6.111c-14.769,-5.092 -23.935,-18.333 -27.5,-38.704c-2.037,-11.203 -1.528,-33.611 0.509,-36.666c0.509,-1.019 6.111,-6.621 12.222,-12.732c9.676,-10.185 18.334,-17.315 25.973,-22.407l2.546,-2.037l1.528,0.509c0.509,0.509 1.018,1.019 1.018,1.019c0,0.509 -1.018,3.055 -2.037,6.62c-4.583,11.713 -7.639,23.935 -9.676,35.139c-1.018,5.602 -1.018,8.657 -1.018,30.555c-0,17.315 -0,25.463 1.018,30.556c0,3.565 0.509,7.639 0.509,8.148l0,1.019l-1.018,-0c-0.509,-0 -2.037,-0.51 -4.074,-1.019Zm119.676,-57.546c-11.204,-11.204 -20.88,-30.046 -26.482,-52.963c-1.018,-3.056 -1.528,-6.111 -1.528,-6.621l0,-1.527l-1.018,3.055l-0,-16.805c-0,-12.223 -0,-16.297 0.509,-16.806c0.509,-0.509 10.185,-2.546 19.352,-4.583l1.019,-0l-1.019,-1.019l5.602,-0.509c3.055,-0.509 10.185,-0.509 14.768,-0.509l9.167,0.509l1.528,3.565c0.509,2.037 1.018,5.092 1.528,6.62l0.509,3.056l1.018,-3.056l0,16.297c0,16.805 0,16.805 -1.527,22.407c-2.037,8.657 -4.584,16.296 -8.658,27.5c-1.528,5.093 -4.583,13.241 -6.111,17.824c-1.528,4.583 -3.055,8.657 -3.565,8.657c0,0 -2.546,-2.037 -5.092,-5.092Zm59.074,-2.037c-12.222,-34.63 -15.278,-43.797 -16.806,-57.037c-1.018,-9.167 0,-22.408 3.056,-33.611l1.018,-3.565l2.037,-0.509c5.602,-0.51 26.991,3.564 40.741,7.129l5.602,1.528l-0,10.694c-0.509,20.88 -5.093,38.195 -14.259,56.019c-4.584,8.657 -9.167,15.278 -14.769,20.88l-4.583,4.583l-2.037,-6.111Zm68.241,5.092c-0,-1.018 -4.584,-21.898 -11.713,-51.944c-3.056,-14.769 -6.112,-28.519 -6.621,-30.046c-0.509,-2.037 -0.509,-3.565 -0.509,-4.074l0.509,-0l5.602,2.037c6.111,2.546 23.935,11.203 29.537,14.259c4.074,2.546 4.074,2.546 4.583,6.111c2.547,10.185 2.547,18.843 0.51,28.518c-1.528,8.658 -4.584,14.769 -9.676,22.917c-2.547,4.074 -10.185,12.732 -11.204,12.732l-0.509,-0l-0.509,-0.51Zm-194.537,-5.601c-11.713,-12.223 -18.334,-29.538 -17.825,-46.852c0.51,-6.621 1.528,-12.732 3.056,-18.334c0.509,-2.546 0.509,-2.546 9.167,-7.129c11.203,-5.093 29.537,-12.223 30.555,-11.713c0,-0 -0.509,2.037 -1.018,4.583c-0.51,2.037 -4.584,18.843 -8.658,37.176c-10.185,47.87 -9.676,45.324 -10.694,45.833c-1.019,0 -2.037,-1.018 -4.583,-3.564Z" style="fill:#fff;fill-rule:nonzero;"/></svg>